<svg width="1920" height="513" fill="none" viewBox="0 0 1920 513" xmlns="http://www.w3.org/2000/svg">
<path d="M907.758 149.039L974 48.3672L973.804 66.9977M907.758 149.039V205.192V222.694L961.466 174.659L972.245 165.018M907.758 149.039L914.29 150.602M953.482 159.978L963.299 162.528M953.482 159.978L973.804 138.829M953.482 159.978L949.128 158.936L944.773 157.894M963.299 162.528L973.804 150.297M963.299 162.528L972.245 165.018M973.804 150.297L974 163.561L972.245 165.018M973.804 150.297V138.829M973.804 138.829V126.432M973.804 126.432L944.773 157.894M973.804 126.432V113.305M944.773 157.894L936.789 155.984M973.804 113.305L936.789 155.984M973.804 113.305V99.4495M936.789 155.984L927.354 153.727M927.354 153.727L973.804 99.4495M927.354 153.727L920.822 152.164M973.804 99.4495V84.1352M973.804 84.1352L920.822 152.164M973.804 84.1352V66.9977M920.822 152.164L914.29 150.602M914.29 150.602L973.804 66.9977M1570.39 205.921L1335.24 91.4277V102.731M1570.39 205.921V255.51M1570.39 205.921L1560.6 207.505M1507.25 216.13V236.55M1507.25 216.13L1335.24 148.726M1507.25 216.13L1516.32 214.664M1507.25 236.55L1570.39 255.51M1507.25 236.55L1498.54 233.965M1335.24 148.726V167.27M1335.24 148.726V139.363M1570.39 255.51V281.763L1335.24 236.55V185.502M1335.24 185.502V167.27M1335.24 185.502L1354.11 191.102M1498.54 233.965V221.235L1479.31 214.879M1498.54 233.965L1479.31 228.257M1335.24 167.27L1354.11 173.506M1354.11 173.506V191.102M1354.11 173.506L1377.34 181.181M1354.11 191.102L1377.34 197.994M1377.34 197.994V181.181M1377.34 197.994L1402.01 205.318M1377.34 181.181L1402.01 189.336M1402.01 189.336V205.318M1402.01 189.336L1420.88 195.572M1402.01 205.318L1420.88 210.918M1420.88 195.572V210.918M1420.88 195.572L1440.48 202.048M1420.88 210.918L1440.48 216.734M1440.48 202.048V216.734M1440.48 202.048L1460.08 208.524M1440.48 216.734L1460.08 222.549M1460.08 208.524V222.549M1460.08 208.524L1479.31 214.879M1460.08 222.549L1479.31 228.257M1479.31 214.879V228.257M1335.24 130V121.434M1335.24 130L1528.96 212.62M1335.24 130V139.363M1335.24 121.434L1539.49 210.918M1335.24 121.434V111.954M1539.49 210.918L1550.8 209.089M1539.49 210.918L1528.96 212.62M1550.8 209.089L1335.24 111.954M1550.8 209.089L1560.6 207.505M1335.24 111.954V102.731M1335.24 102.731L1560.6 207.505M1464.43 352.501V334.27M1577.65 289.785L1464.43 295.619V334.27M1577.65 289.785V196.441L1311.29 57.882M1577.65 289.785L1311.29 245.301M985.417 365.628L1105.17 361.982M985.417 365.628V295.619M985.417 365.628L902.678 352.501M985.417 365.628V370.003H991.223M985.417 365.628L880.904 368.545M1105.17 361.982V165.812L1123.31 156.342M1105.17 361.982L1123.31 363.209M1180.65 268.637V367.086M1180.65 268.637L1464.43 296.349M1180.65 268.637L1194.08 266.225M1180.65 268.637V126.417M1180.65 367.086L1310.57 378.755M1180.65 367.086L1161.05 365.761M1180.65 367.086L1207.5 365.881M1338.87 380.942L1507.25 365.628V350.314L1452.82 353.139M1338.87 380.942V359.054M1338.87 380.942L1310.57 378.755M1338.87 359.054L1359.92 357.961M1338.87 359.054H1335.97M1310.57 378.755V361.252M1310.57 361.252V359.054M1310.57 361.252L1279.36 362.654M1310.57 359.054H1335.97M1310.57 359.054V301.324M1303.31 62.3992L1310.57 58.6112V245.301L1303.31 246.604M1303.31 62.3992V246.604M1303.31 62.3992L1294.6 66.9448M1303.31 246.604L1294.6 248.169M1294.6 248.169V66.9448M1294.6 248.169L1286.61 249.603M1294.6 66.9448L1286.61 71.1116M1286.61 71.1116V249.603M1286.61 71.1116L1279.36 74.8996M1286.61 249.603L1279.36 250.907M1279.36 250.907V74.8996M1279.36 250.907L1271.44 252.328M1279.36 74.8996L1271.44 79.0304M1271.44 79.0304V252.328M1271.44 79.0304L1263.39 83.2333M1271.44 252.328L1263.39 253.775M1263.39 253.775V83.2333M1263.39 253.775L1255.41 255.209M1263.39 83.2333L1255.41 87.4001M1255.41 87.4001V255.209M1255.41 87.4001L1245.97 92.3245M1255.41 255.209L1245.97 256.904M1245.97 256.904V92.3245M1245.97 256.904L1236.51 258.603M1245.97 92.3245L1236.51 97.2618M1236.51 97.2618V258.603M1236.51 97.2618L1227.83 101.795M1236.51 258.603L1227.83 260.163M1227.83 260.163V101.795M1227.83 260.163L1219.04 261.741L1217.67 261.988M1227.83 101.795L1219.04 106.381L1217.67 107.098M1217.67 107.098L1207.5 112.401L1206.5 112.925M1217.67 107.098V261.988M1217.67 261.988L1207.5 263.813L1206.5 263.994M1194.08 266.225V119.409M1194.08 266.225L1206.5 263.994M1194.08 119.409L1180.65 126.417M1194.08 119.409L1206.5 112.925M1180.65 126.417L1161.05 136.644M1161.05 136.644V365.761M1161.05 136.644L1141.46 146.872M1161.05 365.761L1141.46 364.436M1141.46 364.436V146.872M1141.46 364.436L1123.31 363.209M1141.46 146.872L1123.31 156.342M1123.31 156.342V363.209M1207.5 365.881V294.89L1243.43 297.133M1207.5 365.881L1243.43 364.267M1452.82 353.139V310.204L1441.93 309.525M1452.82 353.139L1441.93 353.704M1441.93 353.704V309.525M1441.93 353.704L1431.04 354.269M1441.93 309.525L1431.04 308.845M1431.04 308.845V354.269M1431.04 308.845L1416.53 307.939M1431.04 354.269L1416.53 355.023M1416.53 355.023V307.939M1416.53 355.023L1400.56 355.852M1416.53 307.939L1400.56 306.942M1400.56 306.942V355.852M1400.56 306.942L1380.97 305.719M1400.56 355.852L1380.97 356.869M1380.97 356.869V305.719M1380.97 356.869L1359.92 357.961M1380.97 305.719L1359.92 304.405M1359.92 304.405V357.961M1359.92 304.405L1335.97 302.91M1335.97 359.054V302.91M1335.97 302.91L1310.57 301.324M1310.57 301.324L1279.36 299.376M1279.36 299.376V362.654M1279.36 299.376L1243.43 297.133M1279.36 362.654L1243.43 364.267M1243.43 364.267V297.133M1464.43 334.27H1920M925.902 247.488H935.338M935.338 247.488V267.178M935.338 247.488L991.948 215.401M991.948 215.401V247.488M991.948 215.401L1071.78 226.34M1071.78 226.34L1082.67 223.423M1071.78 226.34V254.052M985.417 1L1015.17 11.9388V27.9825M985.417 1V208.109M985.417 1L902.678 138.829V275.2M1042.03 22.8777L1053.64 27.9825V41.1091M1042.03 22.8777V38.192M1042.03 22.8777L1031.87 34.329M1076.86 37.4628L1232.91 97.991M1076.86 37.4628V49.8601M1076.86 37.4628L1068.16 46.5785M902.678 275.2L985.417 281.763M902.678 275.2L864.211 273.742M985.417 281.763V246.759M985.417 281.763V295.619M864.211 273.742L862.76 381.672M864.211 273.742L827.196 301.453V334.27M862.76 381.672H880.904M862.76 381.672L827.196 359.794V334.27M880.904 381.672V372.921M880.904 381.672H883.081L1167.79 517M985.417 295.619L982.513 295.457M902.678 352.501H880.904M902.678 352.501V334.27M1015.17 27.9825V159.249L1042.03 165.083V38.192M1015.17 27.9825L1031.87 34.329M1042.03 38.192L1031.87 34.329M1053.64 41.1091V167.27L1076.86 172.375V49.8601M1053.64 41.1091L1068.16 46.5785M1076.86 49.8601L1068.16 46.5785M982.513 295.457L902.678 312.392M982.513 295.457L961.466 294.282M902.678 312.392H894.694M902.678 312.392V334.27M961.466 294.282L894.694 312.392M961.466 294.282L944.047 293.31M894.694 312.392H880.904M880.904 312.392L944.047 293.31M880.904 312.392V308.017M880.904 312.392V334.27M944.047 293.31L924.451 292.216M924.451 292.216L880.904 308.017M924.451 292.216L912.838 291.568M880.904 308.017V303.641M880.904 303.641L912.838 291.568M880.904 303.641V299.995M912.838 291.568L902.678 291.001M902.678 291.001L880.904 299.995M902.678 291.001L893.62 290.495M880.904 299.995V294.89M880.904 294.89V289.785L893.62 290.495M880.904 294.89L893.62 290.495M880.904 352.501V334.27M880.904 352.501V368.545M902.678 334.27H880.904M991.223 370.003V374.379M991.223 370.003L883.807 374.379M991.223 374.379H998.481V378.025L888.162 383.859V379.484M991.223 374.379L888.162 379.484M888.162 379.484L883.807 378.025V374.379M883.807 374.379L880.904 372.921M880.904 372.921V368.545M1120.41 488.143L1317.82 446.575M1079.04 468.453L1266.29 435.636M1048.56 455.326L1230 428.344M1027.51 445.117L1200.25 422.51M1007.92 435.636L1174.12 416.676M989.045 427.615L1147.27 410.842M975.981 421.051L1127.67 406.466M965.095 415.947L1102.56 402.565M954.934 410.842L1078.51 399.281M946.95 406.466L1039.12 397.363M936.789 401.361L990.24 396.323M999.206 378.025L1762.56 517M994.126 366.357L1917.76 517M827.196 334.27H0M831.551 355.418L857.679 367.086V353.96M831.551 355.418V310.204M831.551 355.418H838.809V353.96M831.551 310.204L857.679 292.702V297.443M831.551 310.204H837.357M838.809 311.663V310.204H837.357M838.809 311.663V334.27M838.809 311.663H840.261M857.679 311.663V334.27M857.679 311.663H848.244M857.679 311.663V305.829M857.679 334.27H838.809M857.679 334.27V353.96M838.809 334.27V353.96M857.679 353.96H838.809M848.244 311.663L857.679 305.829M848.244 311.663H840.261M857.679 305.829V302.183M857.679 302.183L840.261 311.663M857.679 302.183V297.443M857.679 297.443L837.357 310.204M1528.96 212.62L1525.4 213.197L1516.32 214.664M1516.32 214.664L1335.24 139.363M1206.5 112.925V263.994M924.451 273.012L986.142 246.759L1083.4 256.24V222.694L986.142 208.109L924.451 246.759V273.012Z" stroke="#fff"/>
</svg>
