<svg width="156" height="20" viewBox="0 0 156 20" fill="none" xmlns="http://www.w3.org/2000/svg">
<path fill-rule="evenodd" clip-rule="evenodd" d="M13.2092 19.5828H9.53185V11.5667H3.6872V19.5828H0V0.271739H3.6872V8.54935H9.53185V0.271739H13.2092V19.5828ZM28.7327 12.6427C28.7327 14.9057 28.1346 16.6658 26.9382 17.9432C25.7418 19.2105 24.1434 19.8542 22.1527 19.8542C20.162 19.8542 18.5733 19.2205 17.3868 17.9432C16.2002 16.6759 15.602 14.9057 15.602 12.6427V7.24165C15.602 4.9887 16.2002 3.21851 17.3868 1.93111C18.5733 0.643704 20.162 0 22.1428 0C24.1238 0 25.7222 0.643704 26.9284 1.93111C28.1346 3.21851 28.7426 4.9887 28.7426 7.24165V12.6427H28.7327ZM25.075 7.19137C25.075 5.81343 24.8298 4.76743 24.3199 4.06337C23.8198 3.35932 23.0941 3.0073 22.1331 3.0073C21.1622 3.0073 20.4463 3.35932 19.9659 4.05331C19.4853 4.7473 19.2401 5.79332 19.2401 7.1813V12.6226C19.2401 14.0206 19.4853 15.0667 19.9756 15.7707C20.4659 16.4748 21.1917 16.8167 22.1428 16.8167C23.0941 16.8167 23.8198 16.4647 24.3101 15.7707C24.8102 15.0767 25.0651 14.0206 25.0651 12.6226V7.19137H25.075ZM35.8327 0.271739L39.2061 14.4432H39.2846L42.6972 0.271739H47.4926V19.5828H43.8347V13.9705L44.1388 6.46737L44.0701 6.44726L40.4711 19.5828H38.0294L34.4696 6.5579L34.401 6.56796L34.7148 13.9705V19.5828H31.057V0.271739H35.8327ZM60.2796 11.1041H53.9545V16.5655H61.3877V19.5828H50.2673V0.271739H61.3681V3.2891H53.9545V8.09675H60.2796V11.1041ZM71.6654 14.5336C71.6654 13.7893 71.479 13.1858 71.0966 12.7534C70.7141 12.3108 70.0473 11.8883 69.0961 11.4659C67.1349 10.7619 65.6736 9.9673 64.693 9.08226C63.7222 8.19715 63.2319 6.94997 63.2319 5.35077C63.2319 3.7717 63.8006 2.48429 64.9382 1.48857C66.0758 0.492834 67.5271 0 69.3021 0C71.0966 0 72.548 0.553182 73.6659 1.6696C74.7838 2.77597 75.333 4.18407 75.2937 5.87378L75.2643 5.95425H71.6948C71.6948 5.07922 71.479 4.37516 71.0476 3.83204C70.6161 3.28892 70.0081 3.01736 69.2236 3.01736C68.4881 3.01736 67.9193 3.24869 67.5075 3.69123C67.0956 4.14383 66.8897 4.70708 66.8897 5.39101C66.8897 6.02465 67.1152 6.5376 67.5761 6.94997C68.037 7.36235 68.8215 7.8049 69.9591 8.30779C71.7438 8.93139 73.0873 9.71591 73.9895 10.6613C74.8917 11.6168 75.3427 12.8942 75.3427 14.5135C75.3427 16.183 74.8034 17.4906 73.7149 18.436C72.6264 19.3815 71.1848 19.8542 69.3805 19.8542C67.5859 19.8542 66.0365 19.311 64.7225 18.245C63.4084 17.1688 62.771 15.6299 62.82 13.6283L62.8494 13.5479H66.4288C66.4288 14.7348 66.6739 15.5897 67.1643 16.1127C67.6546 16.6357 68.3998 16.8972 69.3903 16.8972C70.165 16.8972 70.7435 16.686 71.1162 16.2636C71.479 15.831 71.6654 15.2577 71.6654 14.5336ZM81.3246 12.653V19.5828H77.6374V0.271739H84.1782C86.0611 0.271739 87.5321 0.845037 88.6301 1.98157C89.7187 3.11811 90.2579 4.61673 90.2579 6.45732C90.2579 8.31802 89.7093 9.80661 88.6207 10.9431C87.5321 12.0797 86.051 12.6429 84.1782 12.6429H81.3246V12.653ZM81.3246 9.63556H84.188C84.9725 9.63556 85.5711 9.33383 85.9823 8.74043C86.3943 8.14703 86.6003 7.3927 86.6003 6.47743C86.6003 5.55211 86.3943 4.78771 85.9823 4.18424C85.5804 3.58077 84.9725 3.27903 84.1782 3.27903H81.3148V9.63556H81.3246ZM96.2986 11.9191V19.5731H92.6309V0.30231H98.7701C100.623 0.30231 102.075 0.805204 103.134 1.80093C104.193 2.80671 104.723 4.20476 104.723 5.985C104.723 6.99078 104.497 7.85576 104.066 8.58998C103.624 9.31417 102.987 9.89748 102.144 10.33C103.104 10.6719 103.801 11.2251 104.233 11.9996C104.654 12.7741 104.869 13.7497 104.869 14.9163V16.2843C104.869 16.8173 104.929 17.3805 105.047 17.984C105.164 18.5875 105.38 19.03 105.674 19.3016V19.5832H101.879C101.575 19.3016 101.388 18.839 101.31 18.2053C101.231 17.5717 101.192 16.9279 101.192 16.2641V14.9566C101.192 14.0011 100.996 13.2468 100.613 12.7237C100.231 12.1907 99.6823 11.9292 98.9659 11.9292H96.2986V11.9191ZM96.2986 8.91183H98.7599C99.5153 8.91183 100.084 8.6805 100.467 8.20778C100.859 7.73506 101.045 7.07124 101.045 6.20627C101.045 5.32118 100.859 4.61713 100.467 4.09412C100.074 3.57111 99.5153 3.30961 98.7701 3.30961H96.2986V8.91183ZM120.314 12.6427C120.314 14.9057 119.716 16.6658 118.52 17.9432C117.324 19.2105 115.725 19.8542 113.734 19.8542C111.743 19.8542 110.156 19.2205 108.969 17.9432C107.782 16.6759 107.184 14.9057 107.184 12.6427V7.24165C107.184 4.9887 107.782 3.21851 108.969 1.93111C110.156 0.643704 111.743 0 113.725 0C115.705 0 117.304 0.643704 118.51 1.93111C119.716 3.21851 120.324 4.9887 120.324 7.24165V12.6427H120.314ZM116.657 7.19137C116.657 5.81343 116.412 4.76743 115.902 4.06337C115.402 3.35932 114.676 3.0073 113.715 3.0073C112.744 3.0073 112.028 3.35932 111.548 4.05331C111.067 4.7473 110.822 5.79332 110.822 7.1813V12.6226C110.822 14.0206 111.067 15.0667 111.558 15.7707C112.048 16.4748 112.774 16.8167 113.725 16.8167C114.676 16.8167 115.402 16.4647 115.892 15.7707C116.392 15.0767 116.647 14.0206 116.647 12.6226V7.19137H116.657Z" fill="white"/>
<path d="M125.208 16.1532H121.57V19.5729H125.208V16.1532Z" fill="#E45847"/>
<path fill-rule="evenodd" clip-rule="evenodd" d="M132.092 11.9191V19.5731H128.424V0.30231H134.564C136.417 0.30231 137.868 0.805205 138.927 1.80093C139.986 2.80671 140.516 4.20476 140.516 5.985C140.516 6.99078 140.291 7.85576 139.859 8.58998C139.417 9.31417 138.78 9.89748 137.937 10.33C138.898 10.6719 139.594 11.2251 140.025 11.9996C140.447 12.7741 140.663 13.7497 140.663 14.9163V16.2843C140.663 16.8173 140.722 17.3805 140.839 17.984C140.957 18.5875 141.173 19.03 141.467 19.3016V19.5832H137.672C137.368 19.3016 137.182 18.839 137.103 18.2053C137.025 17.5717 136.986 16.9279 136.986 16.2641V14.9566C136.986 14.0011 136.789 13.2468 136.407 12.7237C136.024 12.1907 135.475 11.9292 134.759 11.9292H132.092V11.9191ZM132.092 8.91183H134.553C135.309 8.91183 135.878 8.6805 136.26 8.20778C136.652 7.73506 136.838 7.07124 136.838 6.20627C136.838 5.32118 136.652 4.61713 136.26 4.09412C135.868 3.57111 135.309 3.30961 134.564 3.30961H132.092V8.91183ZM156 0.27174V13.4073C156 15.4691 155.412 17.0483 154.235 18.1647C153.058 19.281 151.518 19.8443 149.616 19.8443C147.713 19.8443 146.174 19.281 144.988 18.1647C143.811 17.0382 143.222 15.4591 143.222 13.4073V0.27174H146.89V13.4073C146.89 14.5841 147.125 15.449 147.606 16.0022C148.076 16.5554 148.743 16.837 149.607 16.837C150.489 16.837 151.166 16.5655 151.636 16.0424C152.097 15.5094 152.332 14.6343 152.332 13.4073V0.27174H156Z" fill="#E45847"/>
</svg>
