<svg width="328" height="200" viewBox="0 0 328 200" fill="none" xmlns="http://www.w3.org/2000/svg">
<rect width="328" height="200" fill="#262626"/>
<rect width="200" height="200" transform="translate(64)" fill="#262626"/>
<path d="M172.805 134.79H175.659V137.919H172.805V134.79ZM203.878 148.871H208V152H203.878V148.871ZM168.841 99.1194C171.061 98.3371 173.122 96.7726 175.183 94.7387L172.963 92.5484C171.22 94.2694 169.476 95.521 167.732 96.1468L168.841 99.1194ZM180.415 87.5419C182 84.7258 183.268 81.4403 184.378 77.9984L181.366 77.0597C180.415 80.3452 179.146 83.3177 177.561 85.9774C176.927 87.229 176.293 88.3242 175.5 89.2629L178.037 90.9839C178.988 90.0452 179.622 88.7935 180.415 87.5419ZM164.402 55H171.537V58.129H164.402V55ZM143 55H159.963V58.129H143V55Z" fill="#BCC2CC"/>
<path d="M142.939 90.6384C146.554 97.0893 151.112 101.652 156.141 104.012C154.412 114.711 148.754 122.893 139.324 128.557L139.166 128.714L139.009 128.871C138.852 129.029 138.852 129.186 138.695 129.186V129.343C138.695 129.501 138.538 129.658 138.538 129.973V148.853H120.777V152H198.736V148.853H189.148V129.815C189.148 129.658 189.148 129.501 188.991 129.186V129.029C188.991 128.871 188.834 128.714 188.676 128.714L188.519 128.557L188.362 128.399C179.089 122.893 173.43 114.711 171.859 104.012C176.888 101.652 181.446 97.0893 185.061 90.6384C198.421 87.649 207.537 76.6354 211.938 57.7549C212.096 57.2829 211.938 56.8109 211.624 56.3389C211.31 56.0242 210.838 55.7095 210.367 55.7095H192.92C192.92 53.8215 192.763 51.6188 192.606 49.416C192.606 48.6293 191.82 48 191.034 48H136.966C136.18 48 135.394 48.6293 135.394 49.416C135.237 51.7761 135.08 53.8215 135.08 55.7095H117.633C117.162 55.7095 116.69 55.8669 116.376 56.3389C116.062 56.6536 115.904 57.2829 116.062 57.7549C120.62 76.6354 129.579 87.649 142.939 90.6384ZM141.838 148.696V137.682H170.13V134.536H141.838V131.389H186.162V134.536H177.517V137.682H186.162V148.696H141.838ZM182.547 128.242H145.453C152.998 122.421 157.713 114.711 159.285 105.113H159.599C162.428 105.9 165.572 105.9 168.558 105.113H168.872C170.444 114.711 175.002 122.421 182.547 128.242ZM186.948 86.8623V86.705C190.72 78.3661 192.606 68.2965 192.92 58.8563H208.323C204.394 74.118 197.164 83.4009 186.948 86.8623ZM138.066 56.6536C138.066 54.9228 138.066 53.1921 138.223 51.1467H189.462C189.619 53.1921 189.62 54.9228 189.62 56.6536V57.2829C189.462 67.9818 187.419 79.3101 182.389 88.4357C177.831 96.7746 170.287 104.012 161.014 102.281C144.825 99.292 138.066 73.9607 137.909 57.1256V56.6536H138.066ZM135.08 58.8563C135.394 67.9818 137.123 78.0514 141.052 86.705V86.8623C130.836 83.4009 123.606 74.118 119.677 58.8563H135.08Z" fill="#BCC2CC"/>
<path d="M124.417 95H127.626V100.76H124.417V95ZM124.417 105.24H127.626V111H124.417V105.24ZM128.267 101.4H134.043V104.6H128.267V101.4ZM118 101.4H123.775V104.6H118V101.4ZM198.374 111H201.583V116.76H198.374V111ZM198.374 121.24H201.583V127H198.374V121.24ZM202.225 117.4H208V120.6H202.225V117.4ZM191.957 117.4H197.733V120.6H191.957V117.4Z" fill="#BCC2CC"/>
</svg>
