<svg width="328" height="200" viewBox="0 0 328 200" fill="none" xmlns="http://www.w3.org/2000/svg">
<rect width="328" height="200" fill="#262626"/>
<rect width="200" height="200" transform="translate(64)" fill="#262626"/>
<path d="M171.264 73H174.669V80.765H171.264V73ZM209.062 148.624H214V152H209.062V148.624ZM183.523 130.056C181.139 130.056 179.266 128.199 179.266 125.835C179.266 124.823 178.585 124.147 177.564 124.147H150.662C149.64 124.147 148.959 124.823 148.959 125.835C148.959 128.199 147.086 130.056 144.703 130.056C143.681 130.056 143 130.731 143 131.744V137.483C143 138.496 143.681 139.171 144.703 139.171C147.086 139.171 148.959 141.028 148.959 143.391C148.959 144.404 149.64 145.079 150.662 145.079H177.564C178.585 145.079 179.266 144.404 179.266 143.391C179.266 141.028 181.139 139.171 183.523 139.171C184.544 139.171 185.225 138.496 185.225 137.483V131.744C185.225 130.731 184.544 130.056 183.523 130.056ZM181.82 135.964C178.926 136.639 176.712 138.833 176.031 141.703H152.194C151.513 138.833 149.3 136.639 146.405 135.964V133.094C149.3 132.419 151.513 130.224 152.194 127.355H176.031C176.712 130.224 178.926 132.419 181.82 133.094V135.964Z" fill="#BCC2CC"/>
<path d="M108 91.7003C108.34 98.1368 113.608 103.049 119.897 103.388C120.577 105.928 121.596 108.3 122.786 110.502C119.217 110.671 115.818 112.026 113.099 114.567C112.419 115.244 112.419 116.261 113.099 116.938C115.988 119.987 120.067 121.511 123.976 121.511C126.355 121.511 128.734 121.003 130.944 119.818C133.493 121.681 135.023 122.528 136.552 123.205C136.382 124.052 136.042 124.899 136.042 125.746V148.612H113.948V152H203.684V148.612H191.788V125.746C191.788 124.899 191.618 124.052 191.448 123.205C193.317 122.189 195.187 121.173 197.056 119.818C199.266 121.003 201.645 121.511 204.024 121.511C208.103 121.511 212.012 119.987 214.901 116.938C215.581 116.261 215.581 115.244 214.901 114.567C212.182 112.026 208.953 110.671 205.214 110.502C206.404 108.3 207.423 105.928 208.103 103.388C214.392 103.049 219.49 98.1368 220 91.7003C220 90.684 219.32 90.0065 218.47 89.8371C215.241 89.6678 212.012 90.684 209.633 92.886C209.633 91.1922 209.633 89.4984 209.463 87.6352C212.182 86.7883 214.391 85.0945 215.921 82.7231C217.791 80.013 218.47 76.6254 217.791 73.4072C217.621 72.5603 216.771 71.8827 215.751 72.0521C212.522 72.7296 209.633 74.5928 207.763 77.3029C207.423 77.8111 207.083 78.4886 206.744 79.1661C204.534 76.1173 200.795 74.0847 196.716 74.0847H196.546C196.036 74.0847 195.697 74.2541 195.357 74.5928C195.017 74.9316 194.847 75.2704 194.847 75.7785C194.847 79.1661 196.206 82.215 198.586 84.4169C200.625 86.2801 203.005 87.4658 205.724 87.8046C205.894 88.9902 205.894 90.0065 205.894 91.1922C204.194 89.1596 201.985 87.6352 199.096 86.9577C198.246 86.7883 197.226 87.2964 197.056 88.1433C196.206 91.3616 196.886 94.7492 198.586 97.4593C199.945 99.8306 202.155 101.524 204.534 102.541C203.684 105.759 202.325 108.638 200.455 111.179C200.455 107.961 199.436 104.912 197.566 102.371C197.056 101.694 195.866 101.524 195.187 102.033C191.958 104.404 189.918 107.961 189.238 111.857C188.898 114.567 189.238 117.277 190.258 119.818C190.088 119.987 189.918 119.987 189.748 120.156C188.388 118.632 186.349 117.446 184.14 117.277V107.283C184.14 106.267 183.46 105.59 182.44 105.59H174.452V86.2801H171.053V107.283C171.053 108.3 171.733 108.977 172.753 108.977H180.741V117.277H149.809V108.977H157.967C158.986 108.977 159.666 108.3 159.666 107.283V75.2704C159.666 74.2541 158.986 73.5766 157.967 73.5766H147.09V68.3257L161.706 54.6059H171.053V66.8013H174.452V52.9121C174.452 51.8958 173.772 51.2182 172.753 51.2182H161.026C160.516 51.2182 160.176 51.3876 159.836 51.7264L144.2 66.4625C143.86 66.8013 143.69 67.3094 143.69 67.6482V75.4397C143.69 76.456 144.37 77.1336 145.39 77.1336H156.267V105.759H148.109C147.09 105.759 146.41 106.436 146.41 107.453V117.446H144.54C141.991 117.446 139.612 118.632 138.082 120.495C137.912 120.326 137.742 120.326 137.572 120.156C140.121 113.889 138.422 106.606 132.643 102.371C131.964 101.863 130.774 102.033 130.264 102.71C128.225 105.251 127.375 108.469 127.375 111.518V111.349C125.505 108.808 124.316 105.928 123.296 102.71C125.845 101.694 127.885 100 129.244 97.6287C130.944 94.7492 131.454 91.5309 130.774 88.3127C130.604 87.4658 129.584 86.7883 128.734 87.127C126.015 87.8046 123.636 89.329 121.936 91.3616C121.936 90.3453 121.936 89.1596 122.106 87.9739C124.825 87.6352 127.375 86.4495 129.244 84.5863C131.624 82.215 132.983 79.1661 132.983 75.9479C132.983 74.9316 132.303 74.2541 131.284 74.2541H131.114C127.035 74.2541 123.466 76.2866 121.086 79.3355C120.747 78.658 120.407 78.1498 120.067 77.4723C118.197 74.7622 115.308 72.899 112.079 72.2215C111.229 72.0521 110.209 72.7296 110.039 73.5766C109.36 76.7948 110.039 80.1824 111.909 82.8925C113.439 85.2639 115.818 86.9577 118.367 87.8046C118.197 89.6678 118.197 91.3616 118.197 93.0554C115.648 90.8534 112.589 89.8371 109.36 90.0065C108.68 90.0065 108 90.8534 108 91.7003ZM200.115 91.0228C203.344 92.5472 205.384 95.7655 205.214 99.3225C201.985 97.798 200.115 94.5798 200.115 91.0228ZM199.775 117.446C199.775 117.277 199.775 117.277 199.775 117.446C200.795 116.43 201.815 115.414 202.665 114.228C202.665 114.059 202.835 114.059 202.835 113.889C205.724 113.55 208.613 114.228 210.992 115.752C207.763 118.124 203.514 118.801 199.775 117.446ZM216.091 93.3941C215.071 96.7818 212.182 99.3225 208.783 99.8306C209.293 98.1368 210.143 96.6124 211.502 95.4267C212.692 94.4104 214.391 93.7329 216.091 93.3941ZM210.313 79.3355C211.332 77.8111 212.692 76.7948 214.222 76.1173C214.222 77.8111 213.712 79.5049 212.692 81.0293C211.672 82.5537 210.313 83.57 208.783 84.2476C208.783 82.5537 209.463 80.8599 210.313 79.3355ZM200.795 82.215C199.605 81.0293 198.586 79.5049 198.246 77.8111C201.645 78.4886 204.364 81.0293 205.214 84.2476V84.5863C203.684 84.2476 202.155 83.4007 200.795 82.215ZM192.637 112.534C192.977 110.163 194.167 107.792 195.866 106.098C197.566 109.147 197.566 112.873 196.206 116.091C195.527 116.769 194.847 117.277 193.657 118.124L193.487 118.293C192.467 116.43 192.297 114.397 192.637 112.534ZM139.442 125.746C139.442 122.866 141.651 120.665 144.54 120.665H183.46C186.349 120.665 188.558 122.866 188.558 125.746V148.612H139.442V125.746ZM127.715 91.0228C127.885 94.4104 125.845 97.798 122.616 99.3225C122.446 95.9349 124.486 92.5472 127.715 91.0228ZM116.838 115.752C119.217 114.228 121.936 113.55 124.995 113.889C126.015 115.244 127.375 116.769 128.055 117.446C124.316 118.801 120.067 118.124 116.838 115.752ZM132.134 106.098C133.833 107.792 134.853 109.993 135.363 112.534C135.703 114.397 135.363 116.43 134.683 118.293L134.513 118.124C133.323 117.277 132.643 116.769 131.964 116.091C130.264 112.873 130.434 109.147 132.134 106.098ZM129.414 77.8111C128.564 81.1987 125.845 83.9088 122.446 84.5863V84.2476C123.466 81.0293 126.185 78.4886 129.414 77.8111ZM113.439 76.1173C116.668 77.4723 118.877 80.6906 118.877 84.2476C117.347 83.57 113.608 79.5049 113.439 76.1173ZM119.217 99.8306C115.648 99.3225 112.759 96.7818 111.909 93.3941C115.308 93.9023 118.197 96.443 119.217 99.8306ZM124.316 58.8404H127.715V64.7687H124.316V58.8404ZM124.316 48H127.715V53.9283H124.316V48ZM128.395 54.7752H134.343V58.1629H128.395V54.7752ZM117.517 54.7752H123.466V58.1629H117.517V54.7752Z" fill="#BCC2CC"/>
<path d="M198.765 61.9286H202.235V68H198.765V61.9286ZM198.765 51H202.235V57.0714H198.765V51ZM202.929 57.7653H209V61.2347H202.929V57.7653ZM192 57.7653H198.071V61.2347H192V57.7653Z" fill="#BCC2CC"/>
</svg>
