<svg width="328" height="200" viewBox="0 0 328 200" fill="none" xmlns="http://www.w3.org/2000/svg">
<rect width="328" height="200" fill="#262626"/>
<rect width="200" height="200" transform="translate(64)" fill="#262626"/>
<path d="M122.128 89.1298H125.532V94.7956H122.128V89.1298ZM122.128 79H125.532V84.6658H122.128V79ZM126.043 85.1809H131.66V88.6147H126.043V85.1809ZM116 85.1809H121.617V88.6147H116V85.1809ZM201.957 142.869H205.362V148.878H201.957V142.869ZM201.957 131.881H205.362V137.89H201.957V131.881ZM206.043 138.749H212V142.182H206.043V138.749ZM195.319 138.749H201.277V142.182H195.319V138.749ZM123.557 137.89L126.504 136.173L128.461 139.593L125.513 141.31L123.557 137.89ZM127.527 144.633L130.475 142.916L135.837 152.283L132.889 154L127.527 144.633ZM196.012 113.84L198.96 112.123L200.832 115.393L197.884 117.11L196.012 113.84ZM186.621 97.5736L189.574 95.8601L196.962 108.811L194.012 110.524L186.621 97.5736Z" fill="#BCC2CC"/>
<path d="M143.353 156H178.647C179.329 156 179.841 155.661 180.182 155.152L197.744 124.776C198.085 124.267 198.085 123.588 197.744 123.079L180.012 92.8727C179.671 92.3636 179.159 92.0242 178.477 92.0242H171.316C171.998 89.4788 171.657 86.9333 170.463 84.7273H177.795C181.376 84.7273 184.274 81.8424 184.274 78.2788C184.274 74.7152 181.376 71.8303 177.795 71.8303H177.113L184.956 46.3758C185.127 45.8667 184.956 45.3576 184.615 44.8485C184.274 44.3394 183.763 44.1697 183.251 44.1697H166.371C165.689 44.1697 165.007 44.6788 164.666 45.3576L160.915 57.5758L157.164 45.1879C156.993 44.5091 156.311 44 155.459 44H138.578C138.067 44 137.555 44.3394 137.214 44.6788C136.873 45.1879 136.703 45.697 136.873 46.2061L144.717 71.6606H144.035C140.454 71.6606 137.555 74.5455 137.555 78.1091C137.555 81.6727 140.454 84.5576 144.035 84.5576H151.537C150.343 86.7636 150.002 89.3091 150.684 91.8545H143.523C142.841 91.8545 142.329 92.1939 141.988 92.703L124.256 123.079C123.915 123.588 123.915 124.267 124.256 124.776L141.818 155.152C142.159 155.661 142.671 156 143.353 156ZM162.62 63.3455L167.565 47.3939H180.864L173.362 71.6606H165.007L164.836 70.9818L162.62 63.3455ZM140.795 47.3939H154.094L161.426 71.6606H148.127L140.795 47.3939ZM140.795 78.1091C140.795 76.4121 142.159 75.0545 143.864 75.0545H177.624C179.329 75.0545 180.694 76.4121 180.694 78.1091C180.694 79.8061 179.329 81.1636 177.624 81.1636H143.864C142.329 81.1636 140.795 79.8061 140.795 78.1091ZM155.459 84.5576H166.2C168.076 86.5939 168.588 89.4788 167.565 91.8545H153.924C153.071 89.4788 153.583 86.5939 155.459 84.5576ZM144.205 95.4182H177.454L193.993 124.097L177.454 152.606H144.205L127.666 123.927L144.205 95.4182Z" fill="#BCC2CC"/>
<path d="M147.383 141.945C147.213 142.625 147.553 143.305 148.064 143.645C148.574 143.985 149.255 144.155 149.936 143.815L161 138.036L172.064 143.815C172.234 143.985 172.574 143.985 172.915 143.985C173.255 143.985 173.596 143.815 173.936 143.645C174.447 143.305 174.787 142.625 174.617 141.945L172.404 129.538L181.426 120.699C181.936 120.189 182.106 119.509 181.936 119C181.766 118.32 181.255 117.98 180.574 117.81L168.149 115.94L162.532 104.892C162.021 103.703 159.979 103.703 159.468 104.892L153.851 116.11L141.426 117.98C140.745 118.15 140.234 118.49 140.064 119.17C139.894 119.849 140.064 120.529 140.574 120.869L149.596 129.707L147.383 141.945ZM145.34 120.869L155.213 119.509C155.723 119.509 156.234 119 156.574 118.66L161 109.651L165.426 118.66C165.596 119.17 166.106 119.509 166.787 119.509L176.66 120.869L169.34 127.838C169 128.178 168.83 128.858 168.83 129.368L170.532 139.226L161.681 134.637C161.511 134.467 161.17 134.467 160.83 134.467C160.489 134.467 160.319 134.467 159.979 134.637L151.128 139.226L152.83 129.368C153 128.858 152.66 128.178 152.319 127.838L145.34 120.869Z" fill="#BCC2CC"/>
</svg>
