<svg width="328" height="200" viewBox="0 0 328 200" fill="none" xmlns="http://www.w3.org/2000/svg">
<rect width="328" height="200" fill="#262626"/>
<rect width="200" height="200" transform="translate(64)" fill="#262626"/>
<path d="M164 114C168.727 114 173.286 112.814 177.169 110.443L175.481 107.564C171.935 109.596 168.052 110.782 164 110.782C151.506 110.782 141.377 100.619 141.377 88.0847C141.377 75.5505 151.506 65.3876 164 65.3876C176.494 65.3876 186.623 75.5505 186.623 88.0847C186.623 90.2866 186.286 92.4886 185.61 94.6906L188.818 95.7068C189.493 93.3355 190 90.7948 190 88.0847C190 73.6873 178.351 62 164 62C149.649 62 138 73.6873 138 88.0847C138 102.482 149.649 114 164 114Z" fill="#BCC2CC"/>
<path d="M179.351 104.712L181.556 107.288C183.252 105.742 184.779 103.853 185.966 101.963L183.083 100.074C182.235 101.791 180.878 103.337 179.351 104.712ZM177.485 80.6626L169.174 79.4601L165.442 71.9018C164.933 70.6994 162.897 70.6994 162.389 71.9018L158.657 79.4601L150.515 80.6626C149.836 80.8344 149.327 81.1779 149.158 81.865C148.988 82.5521 149.158 83.2393 149.667 83.5828L155.604 89.4233L154.247 97.6687C154.077 98.3558 154.416 99.0429 154.925 99.3865C155.434 99.7301 156.112 99.9018 156.791 99.5583L164.085 95.6074L171.379 99.5583C171.548 99.7301 171.888 99.7301 172.227 99.7301C172.566 99.7301 172.905 99.5583 173.245 99.3865C173.753 99.0429 174.093 98.3558 173.923 97.6687L172.566 89.4233L178.503 83.5828C179.012 83.0675 179.181 82.3804 179.012 81.865C178.842 81.3497 177.994 80.6626 177.485 80.6626ZM169.513 87.5337C169.174 87.8773 169.004 88.5644 169.004 89.0798L170.022 94.7485L164.933 92C164.763 91.8282 164.424 91.8282 164.085 91.8282C163.746 91.8282 163.576 91.8282 163.237 92L158.148 94.7485L159.166 89.0798C159.335 88.5644 158.996 87.8773 158.657 87.5337L154.586 83.5828L160.183 82.7239C160.692 82.7239 161.201 82.2086 161.54 81.865L164.085 76.7117L166.629 81.865C166.799 82.3804 167.308 82.7239 167.986 82.7239L173.584 83.5828L169.513 87.5337ZM127.276 132.196H130.669V137.865H127.276V132.196ZM127.276 142.331H130.669V148H127.276V142.331ZM131.178 138.38H136.775V141.816H131.178V138.38ZM121 138.38H126.598V141.816H121V138.38ZM197.501 132.196H200.893V137.865H197.501V132.196ZM197.501 142.331H200.893V148H197.501V142.331ZM201.402 138.38H207V141.816H201.402V138.38ZM191.394 138.38H196.992V141.816H191.394V138.38Z" fill="#BCC2CC"/>
<path d="M126.809 77.9829C122.553 79.5121 120 83.2503 120 87.668C120 92.0858 122.723 95.9939 126.809 97.3532C130.553 98.7125 132.596 102.96 130.723 106.868C129.191 110.097 129.362 113.835 131.234 116.723C133.277 120.122 136.511 121.991 140.085 121.991C141.617 121.991 143.149 121.651 144.511 120.971C145.702 120.462 147.234 120.122 148.596 120.462V154.444C148.596 154.954 148.936 155.634 149.447 155.974H150.298C150.638 155.974 150.809 155.974 151.149 155.804L163.915 149.177L176.681 155.804C177.191 156.144 177.872 155.974 178.383 155.804C178.894 155.464 179.234 154.954 179.234 154.275V120.292C180.596 120.122 181.957 120.292 183.319 120.801C186.553 122.331 190.298 122.161 193.362 120.292C196.426 118.423 198.298 115.024 198.298 111.456C198.298 109.927 197.957 108.398 197.277 106.868C196.766 105.849 196.596 104.999 196.596 103.98C196.596 101.091 198.468 98.3727 201.191 97.3532C205.447 95.8239 208 92.0858 208 87.668C208 83.2503 205.277 79.3422 201.191 77.9829C197.277 76.6236 195.404 72.2058 197.277 68.4677C198.809 65.2393 198.638 61.5012 196.766 58.6127C194.894 55.5542 191.489 53.6851 187.915 53.6851C186.383 53.6851 184.851 54.025 183.319 54.7046C179.574 56.5737 175.149 54.5347 173.787 50.7966C172.255 46.5487 168.511 44 164.085 44C159.66 44 155.745 46.7186 154.383 50.7966C153.362 53.5152 150.809 55.3843 147.745 55.3843C146.723 55.3843 145.702 55.2144 144.681 54.7046C141.447 53.1754 137.702 53.3453 134.809 55.2144C131.745 57.0834 129.872 60.4817 129.872 64.0499C129.872 65.5792 130.213 67.1084 130.894 68.4677C131.404 69.4872 131.574 70.5067 131.574 71.5262C131.404 74.4147 129.532 77.1333 126.809 77.9829ZM164.766 145.609C164.596 145.439 164.255 145.439 163.915 145.439C163.574 145.439 163.404 145.439 163.064 145.609L152 151.556V121.821C153.021 122.67 153.702 123.69 154.213 124.879C155.745 129.127 159.489 131.676 163.915 131.676C168.34 131.676 172.255 128.957 173.617 124.879C173.957 123.69 174.638 122.84 175.83 121.821V151.386L164.766 145.609ZM134.809 71.5262C134.809 69.9969 134.468 68.4677 133.787 67.1084C131.064 61.3313 137.191 55.0444 143.149 57.7631C144.511 58.4427 146.043 58.7826 147.574 58.7826C152 58.7826 155.915 56.0639 157.447 51.8161C158.638 48.4178 161.702 47.2284 163.915 47.2284C166.298 47.2284 169.191 48.4178 170.553 51.8161C171.574 54.5347 173.617 56.7436 176.34 57.933C179.064 59.1224 182.128 58.9525 184.681 57.7631C187.915 56.2339 191.83 57.4233 193.702 60.3118C195.064 62.3508 195.064 64.7296 194.043 66.9385C193.362 68.2978 193.021 69.827 193.021 71.3562C193.021 75.774 195.745 79.6821 200 81.2113C203.404 82.4007 204.596 85.4592 204.596 87.668C204.596 90.0468 203.404 92.9354 200 94.2947C195.915 95.8239 193.021 99.732 193.021 104.15C193.021 105.679 193.362 107.208 194.043 108.568C194.553 109.587 194.723 110.607 194.723 111.626C194.723 114.005 193.362 116.214 191.319 117.573C189.277 118.932 186.894 118.932 184.681 117.913C182.298 116.723 179.404 116.554 177.021 117.403C173.957 118.423 171.574 120.801 170.553 123.69C169.362 127.088 166.298 128.278 163.915 128.278C161.532 128.278 158.638 127.088 157.447 123.69C156.426 120.631 154.043 118.253 150.979 117.403C149.787 117.063 148.596 116.893 147.574 116.893C146.043 116.893 144.511 117.233 143.149 117.913C139.915 119.442 136.17 118.253 134.298 115.364C132.936 113.325 132.936 110.946 133.957 108.737C134.638 107.378 134.979 105.849 134.979 104.32C134.979 99.9019 132.255 95.9939 128 94.4646C124.596 93.2752 123.404 90.2168 123.404 87.838C123.404 85.4592 124.596 82.5706 128 81.3812C132.085 79.852 134.809 75.774 134.809 71.5262Z" fill="#BCC2CC"/>
</svg>
