<svg width="96" height="96" viewBox="0 0 96 96" fill="none" xmlns="http://www.w3.org/2000/svg">
<rect width="96" height="96" fill="#262626"/>
<path d="M66.472 57.9059C66.3433 57.8523 66.2016 57.8383 66.0649 57.8656C65.9283 57.8928 65.8027 57.9601 65.7042 58.059L58.0049 65.7831C57.9063 65.8819 57.8391 66.0079 57.8119 66.145C57.7847 66.2821 57.7987 66.4243 57.852 66.5534C57.9054 66.6826 57.9957 66.793 58.1116 66.8707C58.2275 66.9483 58.3638 66.9897 58.5032 66.9897H66.2025C66.295 66.9897 66.3866 66.9714 66.4721 66.9359C66.5576 66.9004 66.6353 66.8483 66.7007 66.7827C66.7661 66.717 66.818 66.6391 66.8534 66.5533C66.8888 66.4676 66.907 66.3757 66.907 66.2829V58.5588C66.907 58.419 66.8656 58.2824 66.7882 58.1662C66.7108 58.0499 66.6007 57.9594 66.472 57.9059ZM60.2038 65.5762L65.4978 60.2652V65.5762H60.2038Z" fill="#7E858F"/>
<path d="M71.5651 46.5768C71.4364 46.5233 71.2947 46.5093 71.158 46.5365C71.0214 46.5638 70.8958 46.6311 70.7973 46.7299L68.6872 48.8467V34.4539C68.6872 34.2665 68.613 34.0867 68.4809 33.9542C68.3488 33.8216 68.1696 33.7471 67.9827 33.7471H62.5695L64.5345 31.7758L64.5353 31.7749L66.4287 29.8754C66.8344 29.4684 67.0578 28.9271 67.0578 28.3515C67.0578 27.7759 66.8344 27.2347 66.4287 26.8276L64.2393 24.6311C63.8336 24.2241 63.294 24 62.7202 24C62.1465 24 61.607 24.2241 61.2012 24.6311L52.1145 33.747H30.2456V26.7548C30.2456 26.662 30.2274 26.57 30.192 26.4843C30.1566 26.3985 30.1047 26.3206 30.0393 26.255C29.9739 26.1894 29.8962 26.1373 29.8107 26.1018C29.7252 26.0663 29.6336 26.048 29.5411 26.048C26.4858 26.0482 24 28.5418 24 31.6071V61.627C24 61.6792 24.006 61.73 24.0167 61.7789C24.114 63.0796 24.6749 64.288 25.6123 65.2054C26.6143 66.1858 27.937 66.7258 29.3369 66.7258H50.8655L46.8109 70.7934C46.7124 70.8923 46.6453 71.0182 46.6182 71.1553C46.591 71.2924 46.605 71.4345 46.6583 71.5636C46.7116 71.6928 46.8019 71.8031 46.9177 71.8808C47.0336 71.9585 47.1697 72 47.3091 72H71.2955C71.4823 72 71.6615 71.9255 71.7936 71.793C71.9258 71.6604 72 71.4807 72 71.2932V47.2298C72 47.09 71.9586 46.9534 71.8812 46.8372C71.8038 46.7209 71.6938 46.6303 71.5651 46.5768ZM62.1978 25.6308C62.4858 25.3416 62.955 25.3416 63.243 25.6308L65.4325 27.8273C65.7207 28.1164 65.7207 28.5869 65.4325 28.876L64.0365 30.2766L60.8016 27.0314L62.1978 25.6308ZM59.8052 28.031L63.04 31.2761L61.7473 32.573L58.5127 29.3278L59.8052 28.031ZM70.5911 55.1717H69.2913C69.1988 55.1717 69.1071 55.19 69.0217 55.2255C68.9362 55.261 68.8585 55.3131 68.7931 55.3787C68.7276 55.4443 68.6758 55.5223 68.6404 55.608C68.605 55.6938 68.5867 55.7857 68.5868 55.8785C68.5867 55.9713 68.605 56.0633 68.6404 56.149C68.6758 56.2348 68.7276 56.3127 68.7931 56.3783C68.8585 56.444 68.9362 56.496 69.0217 56.5315C69.1071 56.5671 69.1988 56.5853 69.2913 56.5853H70.5911V58.7152H69.2913C68.9021 58.7152 68.5868 59.0316 68.5868 59.422C68.5868 59.8124 68.9021 60.1288 69.2913 60.1288H70.5911V62.2586H69.2913C69.1988 62.2586 69.1071 62.2769 69.0217 62.3124C68.9362 62.3479 68.8585 62.4 68.7931 62.4656C68.7276 62.5312 68.6758 62.6091 68.6404 62.6949C68.605 62.7807 68.5867 62.8726 68.5868 62.9654C68.5867 63.0582 68.605 63.1501 68.6404 63.2359C68.6758 63.3217 68.7276 63.3996 68.7931 63.4652C68.8585 63.5308 68.9362 63.5829 69.0217 63.6184C69.1071 63.6539 69.1988 63.6722 69.2913 63.6722H70.5911V65.8021H69.2913C69.1044 65.8021 68.9252 65.8766 68.7931 66.0091C68.661 66.1417 68.5868 66.3214 68.5868 66.5089C68.5868 66.6963 68.661 66.8761 68.7931 67.0087C68.9252 67.1412 69.1044 67.2157 69.2913 67.2157H70.5911V70.5867H49.0099L56.1263 63.4475C56.1917 63.3819 56.2436 63.304 56.279 63.2182C56.3144 63.1325 56.3326 63.0405 56.3326 62.9477C56.3326 62.8549 56.3144 62.763 56.279 62.6772C56.2436 62.5915 56.1917 62.5136 56.1263 62.4479C56.0952 62.417 56.0614 62.389 56.0252 62.3643C55.8896 62.2714 55.7259 62.2289 55.5625 62.2441C55.399 62.2594 55.2459 62.3315 55.1298 62.4479L52.2745 65.3124H29.337C27.2002 65.3124 25.4801 63.6388 25.4124 61.499C25.4164 61.3656 25.4268 61.2324 25.4436 61.0999L25.4438 61.0976C25.4517 61.0351 25.4612 60.9728 25.472 60.9109L25.4757 60.8898C25.5013 60.7472 25.5343 60.6061 25.5748 60.4671C25.5851 60.4312 25.5958 60.3953 25.6072 60.3599C25.6185 60.3244 25.6306 60.2893 25.6429 60.2543C25.6514 60.2297 25.6598 60.2052 25.669 60.1808C25.6862 60.1345 25.7044 60.0887 25.7231 60.0433C25.7285 60.0302 25.7337 60.017 25.7392 60.0039C25.7633 59.9475 25.7884 59.8917 25.8148 59.8366L25.8181 59.8295C26.3692 58.6855 27.429 57.8325 28.7009 57.5679L28.7116 57.5655C28.7699 57.5536 28.8288 57.5433 28.888 57.5338C28.8979 57.5322 28.9077 57.5303 28.9178 57.5287C28.9715 57.5208 29.0254 57.5139 29.0795 57.5081C29.0947 57.5064 29.1098 57.504 29.125 57.5025C29.1775 57.4975 29.23 57.4935 29.2826 57.4905C29.2993 57.4894 29.316 57.4876 29.3327 57.4868C29.4021 57.4833 29.4716 57.4815 29.5411 57.4815C29.6336 57.4815 29.7252 57.4632 29.8107 57.4277C29.8962 57.3922 29.9739 57.3401 30.0393 57.2745C30.1047 57.2089 30.1566 57.131 30.192 57.0452C30.2274 56.9595 30.2456 56.8675 30.2456 56.7747V51.65C30.2456 51.4625 30.1714 51.2827 30.0393 51.1502C29.9071 51.0176 29.7279 50.9432 29.5411 50.9432C29.3542 50.9432 29.175 51.0176 29.0429 51.1502C28.9108 51.2827 28.8366 51.4625 28.8366 51.65V56.1124C27.6469 56.2634 26.5426 56.7957 25.6718 57.6488C25.5811 57.7384 25.4934 57.831 25.4089 57.9266V31.6071C25.4089 29.5623 26.8926 27.8584 28.8365 27.5219V48.823C28.8395 49.0084 28.915 49.1852 29.0468 49.3153C29.1786 49.4454 29.3561 49.5183 29.541 49.5183C29.7259 49.5183 29.9034 49.4454 30.0352 49.3153C30.167 49.1852 30.2425 49.0084 30.2455 48.823V35.1607H50.7055L46.8108 39.068C46.6803 39.2009 46.6075 39.3801 46.6082 39.5666C46.6089 39.7532 46.6831 39.9318 46.8146 40.0637C46.946 40.1956 47.1241 40.27 47.31 40.2707C47.4959 40.2715 47.6746 40.1985 47.8071 40.0676L57.5161 30.3273L60.7507 33.5726L60.3713 33.9533L60.3703 33.9541L46.1646 48.2058L42.9298 44.9606L45.7299 42.1515C45.8604 42.0186 45.9332 41.8394 45.9325 41.6529C45.9318 41.4664 45.8576 41.2877 45.7262 41.1558C45.5947 41.0239 45.4166 40.9495 45.2307 40.9488C45.0448 40.948 44.8661 41.0211 44.7337 41.1519L41.4352 44.4608C41.4178 44.4785 41.4012 44.497 41.3857 44.5164C41.3805 44.5228 41.3759 44.5297 41.371 44.5364C41.3611 44.5496 41.3513 44.563 41.3422 44.5769C41.3371 44.585 41.3324 44.5933 41.3275 44.6016C41.3145 44.6232 41.3029 44.6457 41.2927 44.6688C41.2865 44.6826 41.2807 44.6966 41.2753 44.7108C41.2734 44.7158 41.271 44.7205 41.2692 44.7255L38.9608 51.286C38.9487 51.321 38.9394 51.357 38.9329 51.3935H36.5899C36.4974 51.3935 36.4057 51.4118 36.3203 51.4473C36.2348 51.4828 36.1571 51.5349 36.0917 51.6005C36.0263 51.6661 35.9744 51.744 35.939 51.8298C35.9036 51.9155 35.8853 52.0075 35.8853 52.1003C35.8853 52.1931 35.9036 52.285 35.939 52.3708C35.9744 52.4565 36.0263 52.5344 36.0917 52.6001C36.1571 52.6657 36.2348 52.7178 36.3203 52.7533C36.4057 52.7888 36.4974 52.8071 36.5899 52.8071H56.1006C56.1931 52.8071 56.2847 52.7888 56.3702 52.7533C56.4557 52.7178 56.5333 52.6657 56.5988 52.6001C56.6642 52.5344 56.7161 52.4565 56.7515 52.3708C56.7869 52.285 56.8051 52.1931 56.8051 52.1003C56.8051 52.0075 56.7869 51.9155 56.7515 51.8298C56.7161 51.744 56.6642 51.6661 56.5988 51.6005C56.5333 51.5348 56.4557 51.4828 56.3702 51.4473C56.2847 51.4117 56.1931 51.3935 56.1006 51.3935H42.1025L46.399 49.8719C46.4026 49.8706 46.406 49.8688 46.4095 49.8675C46.4262 49.8613 46.4426 49.8543 46.4588 49.8469C46.4653 49.8439 46.4718 49.8411 46.4781 49.838C46.4949 49.8295 46.5115 49.8202 46.5278 49.8102C46.5331 49.807 46.5385 49.8041 46.5437 49.8008C46.5607 49.7899 46.5772 49.778 46.5934 49.7654C46.5974 49.7622 46.6016 49.7595 46.6056 49.7563C46.6252 49.7405 46.6444 49.7235 46.6626 49.7052L61.1604 35.1608H67.2781V50.2604L57.2003 60.3707C57.1349 60.4363 57.083 60.5143 57.0476 60.6C57.0122 60.6858 56.994 60.7777 56.994 60.8705C56.994 60.9633 57.0122 61.0552 57.0476 61.141C57.083 61.2267 57.1349 61.3046 57.2003 61.3703C57.2658 61.4359 57.3434 61.488 57.4289 61.5235C57.5144 61.559 57.606 61.5773 57.6985 61.5773C57.7911 61.5773 57.8827 61.559 57.9681 61.5235C58.0536 61.488 58.1313 61.4359 58.1967 61.3703L70.5911 48.9359V55.1717ZM44.876 48.912L42.8579 49.6267L41.5133 48.2778L42.2257 46.2533L44.876 48.912Z" fill="#7E858F"/>
</svg>
