<svg width="96" height="96" viewBox="0 0 96 96" fill="none" xmlns="http://www.w3.org/2000/svg">
<rect width="96" height="96" fill="#262626"/>
<mask id="path-1-inside-1_2209_2675" fill="white">
<path d="M67.2884 34.9055C67.3423 34.8496 67.384 34.7842 67.4112 34.713C67.4384 34.6418 67.4505 34.5662 67.4469 34.4906C67.4433 34.415 67.424 34.3407 67.3901 34.2722C67.3563 34.2036 67.3085 34.142 67.2495 34.091L59.1557 27.0856C59.097 27.0334 59.028 26.9927 58.9527 26.966C58.8773 26.9392 58.7971 26.9269 58.7167 26.9298C58.6363 26.9327 58.5573 26.9508 58.4843 26.9829C58.4113 27.015 58.3458 27.0605 58.2915 27.1169C58.2372 27.1732 58.1952 27.2392 58.1681 27.3111C58.1409 27.3829 58.129 27.4592 58.1332 27.5354C58.1373 27.6116 58.1574 27.6863 58.1922 27.7551C58.227 27.8239 58.2759 27.8855 58.336 27.9362L66.4299 34.9416C66.4887 34.9927 66.5576 35.0324 66.6327 35.0582C66.7077 35.0841 66.7873 35.0957 66.867 35.0923C66.9468 35.089 67.025 35.0707 67.0973 35.0387C67.1696 35.0066 67.2346 34.9614 67.2884 34.9055ZM57.0474 26.0414C57.1013 25.9856 57.1431 25.9202 57.1703 25.849C57.1976 25.7779 57.2098 25.7023 57.2063 25.6267C57.2027 25.551 57.1835 25.4768 57.1497 25.4082C57.1159 25.3396 57.0682 25.278 57.0093 25.2269L56.3824 24.6852C56.3238 24.6329 56.2548 24.5923 56.1794 24.5655C56.104 24.5388 56.0238 24.5265 55.9434 24.5294C55.863 24.5323 55.784 24.5503 55.711 24.5824C55.638 24.6146 55.5725 24.6601 55.5182 24.7164C55.4639 24.7728 55.422 24.8388 55.3948 24.9106C55.3676 24.9825 55.3557 25.0587 55.3599 25.135C55.364 25.2112 55.3841 25.2859 55.4189 25.3547C55.4537 25.4235 55.5026 25.4851 55.5627 25.5358L56.1896 26.0783C56.3086 26.1812 56.4657 26.2352 56.6266 26.2282C56.7874 26.2213 56.9387 26.1541 57.0474 26.0414Z"/>
<path d="M30.8598 46.774L32.0018 45.7858V61.4224H28.5554C28.3943 61.4224 28.2398 61.4832 28.1259 61.5912C28.012 61.6993 27.948 61.8459 27.948 61.9987C27.948 62.1516 28.012 62.2982 28.1259 62.4062C28.2398 62.5143 28.3943 62.575 28.5554 62.575H67.4445C67.6056 62.575 67.7601 62.5143 67.8741 62.4062C67.988 62.2982 68.052 62.1516 68.052 61.9987C68.052 61.8459 67.988 61.6993 67.8741 61.5912C67.7601 61.4832 67.6056 61.4224 67.4445 61.4224H63.9974V45.7858L65.1394 46.774C65.2737 46.8903 65.4309 46.9804 65.602 47.0392C65.773 47.0979 65.9546 47.1241 66.1363 47.1162C66.318 47.1084 66.4963 47.0666 66.661 46.9934C66.8257 46.9202 66.9736 46.8169 67.0962 46.6894L69.6395 44.0454C69.8863 43.7876 70.0154 43.4475 69.9985 43.0996C69.9817 42.7517 69.8203 42.4243 69.5496 42.189L48.9339 24.3464C48.6795 24.1237 48.3461 24 48 24C47.6539 24 47.3204 24.1237 47.0661 24.3464L38.4207 31.8281V28.6278H38.9658C39.1269 28.6278 39.2814 28.5671 39.3953 28.459C39.5092 28.3509 39.5732 28.2044 39.5732 28.0515C39.5732 27.8987 39.5092 27.7521 39.3953 27.644C39.2814 27.5359 39.1269 27.4752 38.9658 27.4752H30.5512C30.3901 27.4752 30.2355 27.5359 30.1216 27.644C30.0077 27.7521 29.9437 27.8987 29.9437 28.0515C29.9437 28.2044 30.0077 28.3509 30.1216 28.459C30.2355 28.5671 30.3901 28.6278 30.5512 28.6278H31.0971V38.1673L26.4504 42.189C26.1796 42.4244 26.0181 42.7521 26.0014 43.1001C25.9847 43.4482 26.1141 43.7884 26.3613 44.0462L28.9029 46.6894C29.397 47.2027 30.2653 47.2865 30.8598 46.774ZM62.7824 61.4224H33.2167V44.7347C34.724 43.43 27.7803 49.4372 47.8842 32.0433C47.9157 32.0163 47.9567 32.0013 47.9992 32.0013C48.0417 32.0013 48.0826 32.0163 48.1142 32.0433L62.7824 44.7347V61.4224ZM32.312 28.6278H37.2057V32.88L32.3112 37.1154L32.312 28.6278ZM27.2684 43.0396C27.1866 43.1111 33.3074 37.8177 47.885 25.1977C47.9163 25.1708 47.957 25.1559 47.9992 25.1559C48.0414 25.1559 48.0821 25.1708 48.1134 25.1977L68.7291 43.0396C68.7626 43.0686 68.7826 43.1089 68.7847 43.1519C68.7869 43.1948 68.7709 43.2368 68.7404 43.2686L66.1972 45.9126C66.1822 45.9283 66.1641 45.941 66.144 45.9501C66.1238 45.9591 66.102 45.9643 66.0797 45.9653C66.0574 45.9663 66.0351 45.9631 66.0142 45.9559C65.9932 45.9487 65.9739 45.9376 65.9574 45.9234L48.9322 31.1888C48.6781 30.966 48.3448 30.8423 47.9988 30.8423C47.6527 30.8423 47.3194 30.966 47.0653 31.1888C46.9203 31.3141 28.8835 46.9215 30.0401 45.9226C30.0236 45.9369 30.0043 45.9481 29.9833 45.9553C29.9623 45.9626 29.94 45.9659 29.9176 45.9649C29.8953 45.964 29.8733 45.9589 29.8531 45.9499C29.8328 45.9409 29.8146 45.9283 29.7995 45.9126L27.2579 43.2694C27.2426 43.2537 27.2308 43.2352 27.223 43.2152C27.2153 43.1951 27.2118 43.1738 27.2128 43.1524C27.2138 43.1311 27.2192 43.1101 27.2287 43.0907C27.2383 43.0714 27.2518 43.054 27.2684 43.0396ZM69.7035 68.6483C69.6225 68.5723 66.9423 66.1949 67.0225 66.2717C66.9046 66.1674 66.7478 66.1118 66.5866 66.1171C66.4255 66.1224 66.2732 66.1883 66.1632 66.3001C66.0532 66.412 65.9946 66.5608 66.0002 66.7137C66.0058 66.8666 66.0752 67.0111 66.1931 67.1154L67.7385 68.4831H30.6816L32.2237 67.1154C32.2821 67.0638 32.3291 67.0018 32.3622 66.9329C32.3953 66.864 32.4137 66.7897 32.4165 66.714C32.4193 66.6384 32.4064 66.563 32.3784 66.4921C32.3505 66.4212 32.3081 66.3563 32.2537 66.3009C32.1993 66.2456 32.1339 66.2009 32.0613 66.1695C31.9887 66.1382 31.9103 66.1207 31.8306 66.118C31.7509 66.1154 31.6714 66.1277 31.5967 66.1542C31.522 66.1807 31.4535 66.2209 31.3951 66.2725L28.7247 68.6406L28.7231 68.643C28.6635 68.6956 28.6158 68.7591 28.5828 68.8298C28.5499 68.9005 28.5325 68.9767 28.5316 69.054C28.5306 69.1312 28.5463 69.2078 28.5775 69.2792C28.6088 69.3505 28.655 69.4151 28.7134 69.469C28.7944 69.545 31.4745 71.9232 31.3943 71.8456C31.5134 71.9424 31.6674 71.9919 31.824 71.9837C31.9806 71.9754 32.1279 71.9101 32.2349 71.8013C32.342 71.6925 32.4006 71.5486 32.3985 71.3998C32.3964 71.251 32.3338 71.1087 32.2237 71.0027L30.6775 69.6349H67.7369L66.1931 71.0027C66.1349 71.0543 66.0879 71.1164 66.0549 71.1853C66.0218 71.2542 66.0035 71.3285 66.0008 71.4042C65.998 71.4798 66.0111 71.5552 66.0391 71.6261C66.0671 71.6969 66.1095 71.7619 66.164 71.8171C66.2184 71.8724 66.2838 71.917 66.3565 71.9483C66.4291 71.9797 66.5075 71.9971 66.5872 71.9997C66.6669 72.0022 66.7464 71.9899 66.8211 71.9633C66.8958 71.9367 66.9642 71.8965 67.0225 71.8448L69.6938 69.4782C69.7536 69.4253 69.8015 69.3614 69.8345 69.2904C69.8676 69.2194 69.8851 69.1428 69.886 69.0652C69.8869 68.9876 69.8712 68.9107 69.8398 68.839C69.8084 68.7674 69.7621 68.7025 69.7035 68.6483Z"/>
<path d="M48.0097 40.4079C48.0048 40.4079 48.0008 40.4048 47.9959 40.4048C47.9894 40.4048 47.9846 40.4079 47.9789 40.4087C44.5212 40.4194 41.7123 43.0888 41.7123 46.3713V55.3576C41.7123 55.9339 42.2064 56.4018 42.8122 56.4018H47.9797C47.9854 56.4018 47.9903 56.4049 47.9959 56.4049C48.0016 56.4049 48.0056 56.4018 48.0113 56.4018H53.1861C53.4778 56.4014 53.7575 56.2912 53.9637 56.0955C54.1699 55.8997 54.2858 55.6343 54.286 55.3576V46.3713C54.286 43.0857 51.4722 40.4133 48.0097 40.4079ZM53.0492 45.9518H48.6026V41.5974C49.7575 41.7299 50.8294 42.2347 51.6389 43.0274C52.4484 43.8201 52.9463 44.8525 53.0492 45.9518ZM42.9272 47.1044H47.3885V50.8856H42.9272V47.1044ZM48.6034 47.1044H53.0711V50.8856H48.6034V47.1044ZM47.3885 41.5981V45.9518H42.9499C43.0527 44.8538 43.5495 43.8224 44.3573 43.0301C45.1652 42.2377 46.2351 41.7322 47.3885 41.5981ZM42.9272 52.0382H47.3885V55.2492H42.9272V52.0382ZM48.6034 55.2492V52.0382H53.0711V55.2492H48.6034Z"/>
</mask>
<path d="M67.2884 34.9055C67.3423 34.8496 67.384 34.7842 67.4112 34.713C67.4384 34.6418 67.4505 34.5662 67.4469 34.4906C67.4433 34.415 67.424 34.3407 67.3901 34.2722C67.3563 34.2036 67.3085 34.142 67.2495 34.091L59.1557 27.0856C59.097 27.0334 59.028 26.9927 58.9527 26.966C58.8773 26.9392 58.7971 26.9269 58.7167 26.9298C58.6363 26.9327 58.5573 26.9508 58.4843 26.9829C58.4113 27.015 58.3458 27.0605 58.2915 27.1169C58.2372 27.1732 58.1952 27.2392 58.1681 27.3111C58.1409 27.3829 58.129 27.4592 58.1332 27.5354C58.1373 27.6116 58.1574 27.6863 58.1922 27.7551C58.227 27.8239 58.2759 27.8855 58.336 27.9362L66.4299 34.9416C66.4887 34.9927 66.5576 35.0324 66.6327 35.0582C66.7077 35.0841 66.7873 35.0957 66.867 35.0923C66.9468 35.089 67.025 35.0707 67.0973 35.0387C67.1696 35.0066 67.2346 34.9614 67.2884 34.9055ZM57.0474 26.0414C57.1013 25.9856 57.1431 25.9202 57.1703 25.849C57.1976 25.7779 57.2098 25.7023 57.2063 25.6267C57.2027 25.551 57.1835 25.4768 57.1497 25.4082C57.1159 25.3396 57.0682 25.278 57.0093 25.2269L56.3824 24.6852C56.3238 24.6329 56.2548 24.5923 56.1794 24.5655C56.104 24.5388 56.0238 24.5265 55.9434 24.5294C55.863 24.5323 55.784 24.5503 55.711 24.5824C55.638 24.6146 55.5725 24.6601 55.5182 24.7164C55.4639 24.7728 55.422 24.8388 55.3948 24.9106C55.3676 24.9825 55.3557 25.0587 55.3599 25.135C55.364 25.2112 55.3841 25.2859 55.4189 25.3547C55.4537 25.4235 55.5026 25.4851 55.5627 25.5358L56.1896 26.0783C56.3086 26.1812 56.4657 26.2352 56.6266 26.2282C56.7874 26.2213 56.9387 26.1541 57.0474 26.0414Z" stroke="#7E858F" stroke-width="2" mask="url(#path-1-inside-1_2209_2675)"/>
<path d="M30.8598 46.774L32.0018 45.7858V61.4224H28.5554C28.3943 61.4224 28.2398 61.4832 28.1259 61.5912C28.012 61.6993 27.948 61.8459 27.948 61.9987C27.948 62.1516 28.012 62.2982 28.1259 62.4062C28.2398 62.5143 28.3943 62.575 28.5554 62.575H67.4445C67.6056 62.575 67.7601 62.5143 67.8741 62.4062C67.988 62.2982 68.052 62.1516 68.052 61.9987C68.052 61.8459 67.988 61.6993 67.8741 61.5912C67.7601 61.4832 67.6056 61.4224 67.4445 61.4224H63.9974V45.7858L65.1394 46.774C65.2737 46.8903 65.4309 46.9804 65.602 47.0392C65.773 47.0979 65.9546 47.1241 66.1363 47.1162C66.318 47.1084 66.4963 47.0666 66.661 46.9934C66.8257 46.9202 66.9736 46.8169 67.0962 46.6894L69.6395 44.0454C69.8863 43.7876 70.0154 43.4475 69.9985 43.0996C69.9817 42.7517 69.8203 42.4243 69.5496 42.189L48.9339 24.3464C48.6795 24.1237 48.3461 24 48 24C47.6539 24 47.3204 24.1237 47.0661 24.3464L38.4207 31.8281V28.6278H38.9658C39.1269 28.6278 39.2814 28.5671 39.3953 28.459C39.5092 28.3509 39.5732 28.2044 39.5732 28.0515C39.5732 27.8987 39.5092 27.7521 39.3953 27.644C39.2814 27.5359 39.1269 27.4752 38.9658 27.4752H30.5512C30.3901 27.4752 30.2355 27.5359 30.1216 27.644C30.0077 27.7521 29.9437 27.8987 29.9437 28.0515C29.9437 28.2044 30.0077 28.3509 30.1216 28.459C30.2355 28.5671 30.3901 28.6278 30.5512 28.6278H31.0971V38.1673L26.4504 42.189C26.1796 42.4244 26.0181 42.7521 26.0014 43.1001C25.9847 43.4482 26.1141 43.7884 26.3613 44.0462L28.9029 46.6894C29.397 47.2027 30.2653 47.2865 30.8598 46.774ZM62.7824 61.4224H33.2167V44.7347C34.724 43.43 27.7803 49.4372 47.8842 32.0433C47.9157 32.0163 47.9567 32.0013 47.9992 32.0013C48.0417 32.0013 48.0826 32.0163 48.1142 32.0433L62.7824 44.7347V61.4224ZM32.312 28.6278H37.2057V32.88L32.3112 37.1154L32.312 28.6278ZM27.2684 43.0396C27.1866 43.1111 33.3074 37.8177 47.885 25.1977C47.9163 25.1708 47.957 25.1559 47.9992 25.1559C48.0414 25.1559 48.0821 25.1708 48.1134 25.1977L68.7291 43.0396C68.7626 43.0686 68.7826 43.1089 68.7847 43.1519C68.7869 43.1948 68.7709 43.2368 68.7404 43.2686L66.1972 45.9126C66.1822 45.9283 66.1641 45.941 66.144 45.9501C66.1238 45.9591 66.102 45.9643 66.0797 45.9653C66.0574 45.9663 66.0351 45.9631 66.0142 45.9559C65.9932 45.9487 65.9739 45.9376 65.9574 45.9234L48.9322 31.1888C48.6781 30.966 48.3448 30.8423 47.9988 30.8423C47.6527 30.8423 47.3194 30.966 47.0653 31.1888C46.9203 31.3141 28.8835 46.9215 30.0401 45.9226C30.0236 45.9369 30.0043 45.9481 29.9833 45.9553C29.9623 45.9626 29.94 45.9659 29.9176 45.9649C29.8953 45.964 29.8733 45.9589 29.8531 45.9499C29.8328 45.9409 29.8146 45.9283 29.7995 45.9126L27.2579 43.2694C27.2426 43.2537 27.2308 43.2352 27.223 43.2152C27.2153 43.1951 27.2118 43.1738 27.2128 43.1524C27.2138 43.1311 27.2192 43.1101 27.2287 43.0907C27.2383 43.0714 27.2518 43.054 27.2684 43.0396ZM69.7035 68.6483C69.6225 68.5723 66.9423 66.1949 67.0225 66.2717C66.9046 66.1674 66.7478 66.1118 66.5866 66.1171C66.4255 66.1224 66.2732 66.1883 66.1632 66.3001C66.0532 66.412 65.9946 66.5608 66.0002 66.7137C66.0058 66.8666 66.0752 67.0111 66.1931 67.1154L67.7385 68.4831H30.6816L32.2237 67.1154C32.2821 67.0638 32.3291 67.0018 32.3622 66.9329C32.3953 66.864 32.4137 66.7897 32.4165 66.714C32.4193 66.6384 32.4064 66.563 32.3784 66.4921C32.3505 66.4212 32.3081 66.3563 32.2537 66.3009C32.1993 66.2456 32.1339 66.2009 32.0613 66.1695C31.9887 66.1382 31.9103 66.1207 31.8306 66.118C31.7509 66.1154 31.6714 66.1277 31.5967 66.1542C31.522 66.1807 31.4535 66.2209 31.3951 66.2725L28.7247 68.6406L28.7231 68.643C28.6635 68.6956 28.6158 68.7591 28.5828 68.8298C28.5499 68.9005 28.5325 68.9767 28.5316 69.054C28.5306 69.1312 28.5463 69.2078 28.5775 69.2792C28.6088 69.3505 28.655 69.4151 28.7134 69.469C28.7944 69.545 31.4745 71.9232 31.3943 71.8456C31.5134 71.9424 31.6674 71.9919 31.824 71.9837C31.9806 71.9754 32.1279 71.9101 32.2349 71.8013C32.342 71.6925 32.4006 71.5486 32.3985 71.3998C32.3964 71.251 32.3338 71.1087 32.2237 71.0027L30.6775 69.6349H67.7369L66.1931 71.0027C66.1349 71.0543 66.0879 71.1164 66.0549 71.1853C66.0218 71.2542 66.0035 71.3285 66.0008 71.4042C65.998 71.4798 66.0111 71.5552 66.0391 71.6261C66.0671 71.6969 66.1095 71.7619 66.164 71.8171C66.2184 71.8724 66.2838 71.917 66.3565 71.9483C66.4291 71.9797 66.5075 71.9971 66.5872 71.9997C66.6669 72.0022 66.7464 71.9899 66.8211 71.9633C66.8958 71.9367 66.9642 71.8965 67.0225 71.8448L69.6938 69.4782C69.7536 69.4253 69.8015 69.3614 69.8345 69.2904C69.8676 69.2194 69.8851 69.1428 69.886 69.0652C69.8869 68.9876 69.8712 68.9107 69.8398 68.839C69.8084 68.7674 69.7621 68.7025 69.7035 68.6483Z" stroke="#7E858F" stroke-width="2" mask="url(#path-1-inside-1_2209_2675)"/>
<path d="M48.0097 40.4079C48.0048 40.4079 48.0008 40.4048 47.9959 40.4048C47.9894 40.4048 47.9846 40.4079 47.9789 40.4087C44.5212 40.4194 41.7123 43.0888 41.7123 46.3713V55.3576C41.7123 55.9339 42.2064 56.4018 42.8122 56.4018H47.9797C47.9854 56.4018 47.9903 56.4049 47.9959 56.4049C48.0016 56.4049 48.0056 56.4018 48.0113 56.4018H53.1861C53.4778 56.4014 53.7575 56.2912 53.9637 56.0955C54.1699 55.8997 54.2858 55.6343 54.286 55.3576V46.3713C54.286 43.0857 51.4722 40.4133 48.0097 40.4079ZM53.0492 45.9518H48.6026V41.5974C49.7575 41.7299 50.8294 42.2347 51.6389 43.0274C52.4484 43.8201 52.9463 44.8525 53.0492 45.9518ZM42.9272 47.1044H47.3885V50.8856H42.9272V47.1044ZM48.6034 47.1044H53.0711V50.8856H48.6034V47.1044ZM47.3885 41.5981V45.9518H42.9499C43.0527 44.8538 43.5495 43.8224 44.3573 43.0301C45.1652 42.2377 46.2351 41.7322 47.3885 41.5981ZM42.9272 52.0382H47.3885V55.2492H42.9272V52.0382ZM48.6034 55.2492V52.0382H53.0711V55.2492H48.6034Z" stroke="#7E858F" stroke-width="2" mask="url(#path-1-inside-1_2209_2675)"/>
</svg>
