<svg width="96" height="96" viewBox="0 0 96 96" fill="none" xmlns="http://www.w3.org/2000/svg">
<rect width="96" height="96" fill="#262626"/>
<mask id="path-1-inside-1_2209_3369" fill="white">
<path fill-rule="evenodd" clip-rule="evenodd" d="M49.184 25.3029C48.4541 25.3029 47.8542 25.9028 47.8542 26.6326V30.2279C48.2449 29.9978 48.6995 29.8657 49.1839 29.8657H50.5137V26.6326C50.5137 25.9027 49.9139 25.3029 49.184 25.3029ZM51.5178 25.4168C51.0772 24.5761 50.1954 24 49.184 24C48.1725 24 47.2907 24.5762 46.8501 25.4169C46.4014 25.0622 45.8354 24.8499 45.2216 24.8499C43.9356 24.8499 42.8594 25.7812 42.6328 27.0034C42.2324 26.757 41.7618 26.6147 41.2591 26.6147C39.8097 26.6147 38.6264 27.7978 38.6264 29.2472V29.8658H36.2537C35.8644 29.2361 35.3862 28.6651 34.8335 28.1705L33.9647 29.1415C34.505 29.6249 34.9597 30.1963 35.3093 30.8314L35.495 31.1687H38.6264V32.4984C38.6264 33.9479 39.8097 35.131 41.2591 35.131C42.0474 35.131 42.757 34.781 43.2403 34.2286C43.7236 34.781 44.4331 35.131 45.2215 35.131C46.0198 35.131 46.7374 34.7721 47.221 34.2074C47.705 34.7265 48.3973 35.0493 49.1134 35.1272L52.2213 35.465V36.6469H35.4948L35.3092 36.9843C34.2203 38.9638 32.1165 40.3031 29.7017 40.3031C27.9976 40.3031 26.4498 39.6367 25.3029 38.5488V37.3779H29.3228L31.9254 33.9077L29.3228 30.4375H25.3029V29.2666C26.4499 28.1787 27.9976 27.5123 29.7017 27.5123C30.8661 27.5123 31.9561 27.8233 32.8955 28.3663L33.5475 27.2383C32.4154 26.5839 31.1013 26.2094 29.7017 26.2094C27.5382 26.2094 25.5822 27.1036 24.1845 28.5402L24 28.7299V31.7404H28.6714L30.2968 33.9077L28.6714 36.075H24V39.0855L24.1845 39.2751C25.5822 40.7119 27.5381 41.606 29.7017 41.606C32.4711 41.606 34.8981 40.1424 36.2538 37.9497H38.6265V40.5469L40.6048 44.5507V72H53.9858V67.8251H52.6829V70.6971H41.9077V49.9828H52.683V64.4135H53.9859V44.6269L58.2692 39.2666L58.1668 37.9497H59.7462C61.1019 40.1422 63.5289 41.6059 66.2983 41.6059C68.4618 41.6059 70.4178 40.7117 71.8155 39.2751L72 39.0854V36.0749H67.3286L65.7032 33.9076L67.3286 31.7403H72V28.7299L71.8155 28.5402C70.4178 27.1036 68.4619 26.2094 66.2983 26.2094C63.5289 26.2094 61.1019 27.673 59.7462 29.8657H55.7544V27.4825C55.7544 26.0437 54.6063 24.8499 53.1464 24.8499C52.5325 24.8499 51.9664 25.0621 51.5178 25.4168ZM51.8166 27.4825V29.8657H54.4515V27.4825C54.4515 26.742 53.8656 26.1527 53.1464 26.1527C52.4164 26.1527 51.8166 26.7526 51.8166 27.4825ZM55.1029 31.1686H49.1839C48.454 31.1686 47.8542 31.7684 47.8542 32.4984C47.8542 33.1704 48.4096 33.7401 49.2543 33.8319L53.5242 34.2961V39.4033H52.2213V37.9497H39.9294V40.2425L41.9077 44.2464V45.8611H52.683V44.1703L56.9304 38.855L56.4524 32.711C56.451 32.6924 56.4495 32.6737 56.4481 32.655C56.4222 32.3168 56.395 31.9628 56.2326 31.6706C56.1565 31.5337 56.0531 31.4188 55.8994 31.3333C55.7423 31.246 55.4953 31.1686 55.1029 31.1686ZM52.683 47.164H41.9077V48.6799H52.683V47.164ZM57.4389 31.1686C57.6876 31.6906 57.7262 32.2492 57.746 32.5345C57.7479 32.5623 57.7496 32.5874 57.7514 32.6097L58.0654 36.6468H60.5051L60.6908 36.9842C61.7797 38.9636 63.8835 40.3031 66.2983 40.3031C68.0023 40.3031 69.5501 39.6366 70.6971 38.5487V37.3778H66.6772L64.0745 33.9076L66.6772 30.4374H70.6971V29.2665C69.5501 28.1787 68.0024 27.5123 66.2983 27.5123C63.8834 27.5123 61.7797 28.8517 60.6908 30.8311L60.5052 31.1686H57.4389ZM43.8918 32.4985C43.8918 33.2283 44.4915 33.8281 45.2215 33.8281C45.9514 33.8281 46.5513 33.2282 46.5513 32.4984V27.4826C46.5513 26.7527 45.9514 26.1528 45.2216 26.1528C44.4916 26.1528 43.8918 26.7527 43.8918 27.4826V32.4985ZM42.5889 29.2472V32.4985C42.5889 33.2282 41.9891 33.8281 41.2591 33.8281C40.5292 33.8281 39.9293 33.2283 39.9293 32.4984V29.2472C39.9293 28.5174 40.5292 27.9176 41.2591 27.9176C41.9889 27.9176 42.5889 28.5174 42.5889 29.2472Z"/>
</mask>
<path fill-rule="evenodd" clip-rule="evenodd" d="M49.184 25.3029C48.4541 25.3029 47.8542 25.9028 47.8542 26.6326V30.2279C48.2449 29.9978 48.6995 29.8657 49.1839 29.8657H50.5137V26.6326C50.5137 25.9027 49.9139 25.3029 49.184 25.3029ZM51.5178 25.4168C51.0772 24.5761 50.1954 24 49.184 24C48.1725 24 47.2907 24.5762 46.8501 25.4169C46.4014 25.0622 45.8354 24.8499 45.2216 24.8499C43.9356 24.8499 42.8594 25.7812 42.6328 27.0034C42.2324 26.757 41.7618 26.6147 41.2591 26.6147C39.8097 26.6147 38.6264 27.7978 38.6264 29.2472V29.8658H36.2537C35.8644 29.2361 35.3862 28.6651 34.8335 28.1705L33.9647 29.1415C34.505 29.6249 34.9597 30.1963 35.3093 30.8314L35.495 31.1687H38.6264V32.4984C38.6264 33.9479 39.8097 35.131 41.2591 35.131C42.0474 35.131 42.757 34.781 43.2403 34.2286C43.7236 34.781 44.4331 35.131 45.2215 35.131C46.0198 35.131 46.7374 34.7721 47.221 34.2074C47.705 34.7265 48.3973 35.0493 49.1134 35.1272L52.2213 35.465V36.6469H35.4948L35.3092 36.9843C34.2203 38.9638 32.1165 40.3031 29.7017 40.3031C27.9976 40.3031 26.4498 39.6367 25.3029 38.5488V37.3779H29.3228L31.9254 33.9077L29.3228 30.4375H25.3029V29.2666C26.4499 28.1787 27.9976 27.5123 29.7017 27.5123C30.8661 27.5123 31.9561 27.8233 32.8955 28.3663L33.5475 27.2383C32.4154 26.5839 31.1013 26.2094 29.7017 26.2094C27.5382 26.2094 25.5822 27.1036 24.1845 28.5402L24 28.7299V31.7404H28.6714L30.2968 33.9077L28.6714 36.075H24V39.0855L24.1845 39.2751C25.5822 40.7119 27.5381 41.606 29.7017 41.606C32.4711 41.606 34.8981 40.1424 36.2538 37.9497H38.6265V40.5469L40.6048 44.5507V72H53.9858V67.8251H52.6829V70.6971H41.9077V49.9828H52.683V64.4135H53.9859V44.6269L58.2692 39.2666L58.1668 37.9497H59.7462C61.1019 40.1422 63.5289 41.6059 66.2983 41.6059C68.4618 41.6059 70.4178 40.7117 71.8155 39.2751L72 39.0854V36.0749H67.3286L65.7032 33.9076L67.3286 31.7403H72V28.7299L71.8155 28.5402C70.4178 27.1036 68.4619 26.2094 66.2983 26.2094C63.5289 26.2094 61.1019 27.673 59.7462 29.8657H55.7544V27.4825C55.7544 26.0437 54.6063 24.8499 53.1464 24.8499C52.5325 24.8499 51.9664 25.0621 51.5178 25.4168ZM51.8166 27.4825V29.8657H54.4515V27.4825C54.4515 26.742 53.8656 26.1527 53.1464 26.1527C52.4164 26.1527 51.8166 26.7526 51.8166 27.4825ZM55.1029 31.1686H49.1839C48.454 31.1686 47.8542 31.7684 47.8542 32.4984C47.8542 33.1704 48.4096 33.7401 49.2543 33.8319L53.5242 34.2961V39.4033H52.2213V37.9497H39.9294V40.2425L41.9077 44.2464V45.8611H52.683V44.1703L56.9304 38.855L56.4524 32.711C56.451 32.6924 56.4495 32.6737 56.4481 32.655C56.4222 32.3168 56.395 31.9628 56.2326 31.6706C56.1565 31.5337 56.0531 31.4188 55.8994 31.3333C55.7423 31.246 55.4953 31.1686 55.1029 31.1686ZM52.683 47.164H41.9077V48.6799H52.683V47.164ZM57.4389 31.1686C57.6876 31.6906 57.7262 32.2492 57.746 32.5345C57.7479 32.5623 57.7496 32.5874 57.7514 32.6097L58.0654 36.6468H60.5051L60.6908 36.9842C61.7797 38.9636 63.8835 40.3031 66.2983 40.3031C68.0023 40.3031 69.5501 39.6366 70.6971 38.5487V37.3778H66.6772L64.0745 33.9076L66.6772 30.4374H70.6971V29.2665C69.5501 28.1787 68.0024 27.5123 66.2983 27.5123C63.8834 27.5123 61.7797 28.8517 60.6908 30.8311L60.5052 31.1686H57.4389ZM43.8918 32.4985C43.8918 33.2283 44.4915 33.8281 45.2215 33.8281C45.9514 33.8281 46.5513 33.2282 46.5513 32.4984V27.4826C46.5513 26.7527 45.9514 26.1528 45.2216 26.1528C44.4916 26.1528 43.8918 26.7527 43.8918 27.4826V32.4985ZM42.5889 29.2472V32.4985C42.5889 33.2282 41.9891 33.8281 41.2591 33.8281C40.5292 33.8281 39.9293 33.2283 39.9293 32.4984V29.2472C39.9293 28.5174 40.5292 27.9176 41.2591 27.9176C41.9889 27.9176 42.5889 28.5174 42.5889 29.2472Z" stroke="#7E858F" stroke-width="2" stroke-miterlimit="22.9256" mask="url(#path-1-inside-1_2209_3369)"/>
</svg>
