<svg width="96" height="96" viewBox="0 0 96 96" fill="none" xmlns="http://www.w3.org/2000/svg">
<rect width="96" height="96" fill="#262626"/>
<path fill-rule="evenodd" clip-rule="evenodd" d="M36.641 29.2591C33.5849 29.2591 31.1075 31.7235 31.1075 34.7635V64.4649C31.1075 64.8126 30.8242 65.0944 30.4746 65.0944C30.1251 65.0944 29.8418 64.8126 29.8418 64.4649V34.7635C29.8418 31.0281 32.8859 28 36.641 28H37.2901C39.0215 28 40.652 28.8109 41.6909 30.1889C41.9006 30.467 41.8439 30.8616 41.5643 31.0702C41.2847 31.2788 40.888 31.2225 40.6783 30.9443C39.8784 29.8834 38.6231 29.2591 37.2901 29.2591H36.641ZM37.6308 38.799C37.6308 36.0443 39.8758 33.8111 42.645 33.8111C45.4143 33.8111 47.6592 36.0443 47.6592 38.799V39.6061C47.6592 40.3104 47.0853 40.8814 46.3773 40.8814H38.9128C38.2048 40.8814 37.6308 40.3104 37.6308 39.6061V38.799ZM42.645 35.0702C40.5748 35.0702 38.8966 36.7397 38.8966 38.799V39.6061C38.8966 39.6095 38.8971 39.6112 38.8976 39.6122C38.8982 39.6137 38.8994 39.6156 38.9013 39.6175C38.9032 39.6195 38.9052 39.6206 38.9067 39.6213C38.9077 39.6217 38.9094 39.6223 38.9128 39.6223H46.3773C46.3807 39.6223 46.3823 39.6217 46.3834 39.6213C46.3849 39.6206 46.3868 39.6195 46.3888 39.6175C46.39 39.6163 46.391 39.615 46.3917 39.6139C46.392 39.6133 46.3923 39.6127 46.3925 39.6122C46.3929 39.6112 46.3935 39.6095 46.3935 39.6061V38.799C46.3935 36.7397 44.7153 35.0702 42.645 35.0702ZM44.1055 46.6925C42.3041 46.6925 40.8438 48.1451 40.8438 49.937V51.8741C40.8438 52.2218 40.5605 52.5036 40.211 52.5036C39.8614 52.5036 39.5781 52.2218 39.5781 51.8741V49.937C39.5781 47.4498 41.6051 45.4334 44.1055 45.4334H63.5781C66.0785 45.4334 68.1055 47.4498 68.1055 49.937V54.1938C70.3063 54.5 72 56.3801 72 58.6537V63.9806C72 66.2005 70.191 68 67.9594 68C65.7279 68 63.9189 66.2005 63.9189 63.9806V62.7215C63.9189 62.4274 63.6791 62.1889 63.3834 62.1889H47.0264C46.6768 62.1889 46.3935 61.907 46.3935 61.5593C46.3935 61.2116 46.6768 60.9298 47.0264 60.9298H63.3834C64.3782 60.9298 65.1846 61.732 65.1846 62.7215V63.9806C65.1846 65.5051 66.4269 66.7409 67.9594 66.7409C69.4919 66.7409 70.7343 65.5051 70.7343 63.9806V58.6537C70.7343 56.8618 69.274 55.4092 67.4726 55.4092C66.209 55.4092 65.1846 56.4282 65.1846 57.6852V58.6537C65.1846 59.0014 64.9012 59.2833 64.5517 59.2833C64.2022 59.2833 63.9189 59.0014 63.9189 58.6537V57.6852C63.9189 55.9477 65.179 54.503 66.8398 54.206V49.937C66.8398 48.1451 65.3795 46.6925 63.5781 46.6925H54.4746V55.7482C54.4746 56.0959 54.1913 56.3777 53.8418 56.3777C53.4923 56.3777 53.2089 56.0959 53.2089 55.7482V46.6925H44.1055ZM40.211 56.3777C38.9473 56.3777 37.9229 57.3967 37.9229 58.6537V63.4964C37.9229 65.2883 39.3832 66.7409 41.1846 66.7409H60.6572C61.0067 66.7409 61.2901 67.0228 61.2901 67.3705C61.2901 67.7181 61.0067 68 60.6572 68H41.1846C38.6842 68 36.6572 65.9837 36.6572 63.4964V58.6537C36.6572 56.7014 38.2483 55.1186 40.211 55.1186C42.1736 55.1186 43.7647 56.7014 43.7647 58.6537V62.5278C43.7647 62.8755 43.4814 63.1574 43.1318 63.1574C42.7823 63.1574 42.499 62.8755 42.499 62.5278V58.6537C42.499 57.3967 41.4746 56.3777 40.211 56.3777ZM24 67.3705C24 67.0228 24.2833 66.7409 24.6329 66.7409H32.4219C32.7714 66.7409 33.0548 67.0228 33.0548 67.3705C33.0548 67.7181 32.7714 68 32.4219 68H24.6329C24.2833 68 24 67.7181 24 67.3705Z" fill="#7E858F"/>
</svg>
