<svg width="96" height="96" viewBox="0 0 96 96" fill="none" xmlns="http://www.w3.org/2000/svg">
<rect width="96" height="96" fill="#262626"/>
<path fill-rule="evenodd" clip-rule="evenodd" d="M50.9317 48.7333C48.502 48.7333 46.532 46.7635 46.532 44.3333C46.5345 41.9042 48.5027 39.9358 50.9317 39.9333C53.3615 39.9333 55.3314 41.9034 55.3314 44.3333C55.3314 46.7635 53.3615 48.7333 50.9317 48.7333ZM50.9317 47.2667C52.5515 47.2667 53.8649 45.9533 53.8649 44.3333C53.8649 42.7134 52.5515 41.4 50.9317 41.4C49.3119 41.4 47.9986 42.7134 47.9986 44.3333C47.9986 45.9533 49.3119 47.2667 50.9317 47.2667ZM62.6643 56.2865V58.2667H61.1977V56.2865L58.3878 52.0738C58.3077 51.9531 58.2648 51.8115 58.2646 51.6667V29.6667C58.2646 27.6418 59.9062 26 61.931 26C63.9558 26 65.5974 27.6418 65.5974 29.6667V51.6667C65.5968 51.8108 65.5539 51.9516 65.4742 52.0716L62.6643 56.2865ZM61.931 27.4667C60.7161 27.4667 59.7312 28.4517 59.7312 29.6667V30.4H64.1309V29.6667C64.1309 28.4517 63.1459 27.4667 61.931 27.4667ZM64.1309 33.3333V31.8667H59.7312V33.3333H64.1309ZM61.931 54.7468L63.4943 52.4H60.3677L61.931 54.7468ZM62.6643 50.9333H64.1309V34.8H62.6643H61.1977H59.7312V50.9333H61.1977H62.6643Z" fill="#7E858F"/>
<path fill-rule="evenodd" clip-rule="evenodd" d="M69.2639 34.8H67.064V36.2667H68.5306V57.5752V59.3778V61.2H61.931C61.7365 61.2 61.55 61.2773 61.4125 61.4148C61.275 61.5523 61.1977 61.7388 61.1977 61.9333V68.5333H29.6664C28.4516 68.5333 27.4666 67.5483 27.4666 66.3333C27.4666 65.1184 28.4516 64.1333 29.6664 64.1333H31.133C31.3275 64.1333 31.514 64.0561 31.6515 63.9185C31.789 63.781 31.8663 63.5945 31.8663 63.4V58.6018L42.1323 49.7012L51.9217 58.0901C52.0562 58.2054 52.2279 58.268 52.405 58.2665C52.5822 58.265 52.7528 58.1994 52.8853 58.0819L57.835 53.6819L56.8611 52.5819L52.3879 56.5572L42.6088 48.1768C42.4761 48.0632 42.3071 48.0007 42.1323 48.0007C41.9575 48.0007 41.7885 48.0632 41.6557 48.1768L31.8663 56.6607V36.2667H56.798V34.8H31.8663V31.1333C31.8663 30.9388 31.789 30.7523 31.6515 30.6148C31.514 30.4773 31.3275 30.4 31.133 30.4H29.6664C27.6424 30.4025 26.0025 32.0428 26 34.0667V66.3333C26.0025 68.3575 27.6424 69.9974 29.6664 70H61.931C62.1254 69.9996 62.3117 69.9223 62.4494 69.7851L69.7823 62.4518C69.8436 62.3895 69.8933 62.3167 69.9291 62.2369C69.9392 62.214 69.9453 62.1922 69.9532 62.1689C69.9742 62.1073 69.9871 62.0429 69.9915 61.9781C69.9915 61.9627 70 61.9487 70 61.9333V35.5333C70 35.4368 69.9809 35.3412 69.9439 35.252C69.9069 35.1629 69.8526 35.0819 69.7842 35.0138C69.7158 34.9456 69.6347 34.8917 69.5454 34.855C69.4561 34.8183 69.3604 34.7996 69.2639 34.8ZM29.6664 31.8667C28.4516 31.8667 27.4666 32.8517 27.4666 34.0667V63.4C28.1007 62.923 28.873 62.6656 29.6664 62.6667H30.3997V31.8667H29.6664ZM62.6643 62.6667V67.4963L67.4937 62.6667H62.6643Z" fill="#7E858F"/>
</svg>
