<svg width="96" height="96" viewBox="0 0 96 96" fill="none" xmlns="http://www.w3.org/2000/svg">
<rect width="96" height="96" fill="#262626"/>
<path d="M69.2658 35.3L69.2639 35.3L67.564 35.3V35.7667H68.5306H69.0306V36.2667V57.5752V59.3778V61.2V61.7H68.5306H61.931C61.8692 61.7 61.8098 61.7246 61.7661 61.7683C61.7223 61.8121 61.6977 61.8714 61.6977 61.9333V68.5333V69.0333H61.1977H29.6664C28.1754 69.0333 26.9666 67.8244 26.9666 66.3333C26.9666 64.8423 28.1754 63.6333 29.6664 63.6333H31.133C31.1949 63.6333 31.2542 63.6088 31.2979 63.565C31.3417 63.5212 31.3663 63.4619 31.3663 63.4V58.6018V58.3735L31.5388 58.224L41.8048 49.3234L42.1304 49.041L42.4576 49.3215L52.247 57.7104C52.247 57.7104 52.247 57.7104 52.247 57.7104C52.2898 57.7471 52.3444 57.767 52.4007 57.7665C52.4571 57.7661 52.5114 57.7452 52.5535 57.7078L57.1298 53.6397L56.8188 53.2884L52.7201 56.9309L52.3939 57.2208L52.0626 56.9368L42.2836 48.5566L69.2658 35.3ZM69.2658 35.3C69.2965 35.2999 69.3269 35.3058 69.3554 35.3175C69.3838 35.3292 69.4096 35.3463 69.4313 35.368C69.4531 35.3897 69.4704 35.4154 69.4821 35.4438C69.4939 35.4722 69.5 35.5026 69.5 35.5333V61.8819C69.4967 61.9003 69.4937 61.9229 69.4923 61.9487C69.4905 61.969 69.4863 61.9888 69.4801 62.007L69.4796 62.0086L69.4717 62.0325L69.4691 62.0403C69.4583 62.0623 69.444 62.0824 69.427 62.1C69.4266 62.1004 69.4262 62.1008 69.4258 62.1012L62.0966 69.4309C62.0523 69.475 61.9924 69.4999 61.9299 69.5H29.6671C27.9188 69.4978 26.5023 68.0814 26.5 66.333V34.067C26.5023 32.3189 27.9186 30.9023 29.6667 30.9C29.6668 30.9 29.6669 30.9 29.667 30.9L31.133 30.9C31.1949 30.9 31.2542 30.9246 31.2979 30.9683C31.3417 31.0121 31.3663 31.0714 31.3663 31.1333V34.8V35.3H31.8663H56.298M69.2658 35.3L56.298 35.3M56.298 35.3V35.7667H31.8663H31.3663V36.2667V56.6607V57.7556L32.1937 57.0385L41.9809 48.5566C41.9812 48.5564 41.9815 48.5561 41.9818 48.5559C42.0238 48.5203 42.0772 48.5007 42.1323 48.5007C42.1877 48.5007 42.2413 48.5205 42.2835 48.5565L56.298 35.3ZM69.5156 61.8162L69.5148 61.8191C69.5156 61.816 69.5163 61.8136 69.5156 61.8162ZM30.8997 31.8667V31.3667H30.3997H29.6664C28.1754 31.3667 26.9666 32.5756 26.9666 34.0667V63.4V64.4017L27.7671 63.7996C28.3144 63.3879 28.9809 63.1657 29.6658 63.1667H29.6664H30.3997H30.8997V62.6667V31.8667ZM62.1643 67.4963V68.7035L63.0179 67.8499L67.8473 63.0202L68.7008 62.1667H67.4937H62.6643H62.1643V62.6667V67.4963ZM62.2483 56.0091L62.1643 56.1351V56.2865V57.7667H61.6977V56.2865V56.135L61.6137 56.009L58.8043 51.7972C58.8042 51.7971 58.8042 51.797 58.8041 51.7968C58.7784 51.758 58.7647 51.7125 58.7646 51.6659V29.6667C58.7646 27.9179 60.1824 26.5 61.931 26.5C63.6796 26.5 65.0974 27.9179 65.0974 29.6667L65.0974 51.6643C65.0974 51.6645 65.0974 51.6647 65.0974 51.665C65.0971 51.711 65.0834 51.756 65.0581 51.7945C65.0579 51.7947 65.0578 51.7949 65.0576 51.7952L62.2483 56.0091ZM64.1309 51.4333H64.6309V50.9333V34.8V34.3H64.1309H62.6643H61.1977H59.7312H59.2312V34.8V50.9333V51.4333H59.7312H61.1977H62.6643H64.1309ZM64.1309 30.9H64.6309V30.4V29.6667C64.6309 28.1756 63.4221 26.9667 61.931 26.9667C60.44 26.9667 59.2312 28.1756 59.2312 29.6667V30.4V30.9H59.7312H64.1309ZM59.7312 31.3667H59.2312V31.8667V33.3333V33.8333H59.7312H64.1309H64.6309V33.3333V31.8667V31.3667H64.1309H59.7312ZM60.3677 51.9H59.4339L59.9516 52.6772L61.5149 55.024L61.931 55.6486L62.3471 55.024L63.9104 52.6772L64.4281 51.9H63.4943H60.3677ZM50.9317 48.2333C48.7783 48.2333 47.0323 46.4877 47.032 44.3338C47.0342 42.1804 48.779 40.4355 50.9322 40.4333C53.0856 40.4336 54.8314 42.1797 54.8314 44.3333C54.8314 46.4874 53.0853 48.2333 50.9317 48.2333ZM50.9317 47.7667C52.8277 47.7667 54.3649 46.2294 54.3649 44.3333C54.3649 42.4373 52.8277 40.9 50.9317 40.9C49.0357 40.9 47.4986 42.4373 47.4986 44.3333C47.4986 46.2294 49.0357 47.7667 50.9317 47.7667Z" stroke="#7E858F"/>
</svg>
