<svg width="48" height="48" viewBox="0 0 48 48" fill="none" xmlns="http://www.w3.org/2000/svg">
<g clip-path="url(#clip0_391_4158)">
<path d="M36 13.577V9C36 8.1717 35.3283 7.5 34.5 7.5H30V10.5H33V15.03C33 15.03 36 16.7157 36 20.25V37.5H30V40.5H37.5C38.3283 40.5 39 39.8283 39 39V20.25C39 17.6806 37.9156 15.2886 36 13.577Z" fill="#5FB3F6"/>
<path d="M24 13.577V9C24 8.1717 23.3283 7.5 22.5 7.5H13.5C12.6717 7.5 12 8.1717 12 9V13.577C10.0844 15.2886 9 17.6806 9 20.25V39C9 39.8283 9.6717 40.5 10.5 40.5H25.5C26.3283 40.5 27 39.8283 27 39V20.25C27 17.6806 25.9156 15.2886 24 13.577ZM24 37.5H12V20.25C12 16.716 15 15.03 15 15.03V10.5H21V15.03C21 15.03 24 16.716 24 20.25V37.5Z" fill="#5FB3F6"/>
</g>
<defs>
<clipPath id="clip0_391_4158">
<rect width="48" height="48" fill="white"/>
</clipPath>
</defs>
</svg>
