<svg width="48" height="48" viewBox="0 0 48 48" fill="none" xmlns="http://www.w3.org/2000/svg">
<g clip-path="url(#clip0_391_4172)">
<path d="M24 36V33C25.1598 32.8996 26.247 32.3933 27.0701 31.5701C27.8933 30.747 28.3996 29.6598 28.5 28.5H31.5C31.4031 30.4578 30.5818 32.3097 29.1957 33.6957C27.8097 35.0818 25.9578 35.9031 24 36Z" fill="#5FB3F6"/>
<path d="M24 42C20.421 41.9955 16.9898 40.5717 14.4591 38.0409C11.9283 35.5102 10.5045 32.079 10.5 28.5C10.5807 25.8684 11.3537 23.3045 12.7411 21.0669L22.7292 5.15505C22.8735 4.95244 23.0641 4.78726 23.2851 4.67329C23.5062 4.55931 23.7513 4.49985 24 4.49985C24.2487 4.49985 24.4938 4.55931 24.7149 4.67329C24.9359 4.78726 25.1265 4.95244 25.2708 5.15505L35.2142 20.9896C36.6252 23.2477 37.4138 25.8388 37.5 28.5C37.4955 32.079 36.0717 35.5102 33.5409 38.0409C31.0102 40.5717 27.579 41.9955 24 42ZM24 8.77245L15.3274 22.5843C14.2098 24.3617 13.5796 26.4019 13.5 28.5C13.5 31.2848 14.6062 33.9555 16.5754 35.9246C18.5445 37.8937 21.2152 39 24 39C26.7848 39 29.4555 37.8937 31.4246 35.9246C33.3938 33.9555 34.5 31.2848 34.5 28.5C34.4145 26.3724 33.7688 24.305 32.628 22.507L24 8.77245Z" fill="#5FB3F6"/>
</g>
<defs>
<clipPath id="clip0_391_4172">
<rect width="48" height="48" fill="white"/>
</clipPath>
</defs>
</svg>
