<svg width="26" height="18" viewBox="0 0 26 18" fill="none" xmlns="http://www.w3.org/2000/svg">
<g opacity="0.6" clip-path="url(#clip0_2114_1899)">
<path d="M25.4556 2.8242C25.3084 2.27918 25.0217 1.78573 24.6259 1.39634C24.2189 0.994968 23.7201 0.707855 23.1766 0.562105C21.1423 0.00557513 12.9924 0.0055753 12.9924 0.0055753C9.59481 -0.0345481 6.19805 0.141925 2.82129 0.533997C2.27773 0.690515 1.77987 0.984042 1.37198 1.38847C0.971208 1.78872 0.68091 2.28229 0.529264 2.82307C0.164981 4.86003 -0.0120135 6.92829 0.000668531 8.99999C-0.0123298 11.0698 0.164229 13.1374 0.529264 15.1769C0.67766 15.7154 0.966868 16.2067 1.36874 16.6036C1.7706 17.0005 2.27103 17.2872 2.82129 17.439C4.88259 17.9944 12.9924 17.9944 12.9924 17.9944C16.3943 18.0346 19.7954 17.8582 23.1766 17.466C23.7201 17.3202 24.2189 17.0331 24.6259 16.6317C25.0266 16.2349 25.3115 15.7413 25.4545 15.2039C25.8283 13.1677 26.01 11.0986 25.9971 9.02583C26.0253 6.94433 25.8437 4.86544 25.4556 2.82307V2.8242ZM10.4014 12.8496V5.15151L17.1822 9.00108L10.4014 12.8496Z" fill="#BCC2CC"/>
</g>
<defs>
<clipPath id="clip0_2114_1899">
<rect width="26" height="18" fill="white"/>
</clipPath>
</defs>
</svg>
