<svg width="24" height="24" viewBox="0 0 24 24" fill="none" xmlns="http://www.w3.org/2000/svg">
<g opacity="0.6" clip-path="url(#clip0_2114_1893)">
<path d="M11.9968 7.9983C9.79333 7.9983 7.99514 9.79651 7.99514 12C7.99514 14.2035 9.79333 16.0017 11.9968 16.0017C14.2002 16.0017 15.9984 14.2035 15.9984 12C15.9984 9.79651 14.2002 7.9983 11.9968 7.9983ZM23.9986 12C23.9986 10.3429 24.0137 8.70077 23.9206 7.04665C23.8275 5.12536 23.3893 3.42021 21.9843 2.01526C20.5765 0.607303 18.8743 0.172008 16.953 0.0789455C15.2959 -0.0141173 13.6538 0.000892951 11.9998 0.000892951C10.3427 0.000892951 8.70061 -0.0141173 7.04653 0.0789455C5.12526 0.172008 3.42014 0.610304 2.01521 2.01526C0.607291 3.4232 0.172006 5.12536 0.0789441 7.04665C-0.014117 8.70377 0.000892925 10.3459 0.000892925 12C0.000892925 13.6542 -0.014117 15.2992 0.0789441 16.9534C0.172006 18.8746 0.610294 20.5798 2.01521 21.9848C3.42314 23.3927 5.12526 23.828 7.04653 23.921C8.70361 24.0142 10.3457 23.9991 11.9998 23.9991C13.6569 23.9991 15.299 24.0142 16.953 23.921C18.8743 23.828 20.5794 23.3897 21.9843 21.9848C23.3922 20.5768 23.8275 18.8746 23.9206 16.9534C24.0167 15.2992 23.9986 13.6571 23.9986 12ZM11.9968 18.1571C8.58953 18.1571 5.83973 15.4073 5.83973 12C5.83973 8.5927 8.58953 5.84283 11.9968 5.84283C15.404 5.84283 18.1538 8.5927 18.1538 12C18.1538 15.4073 15.404 18.1571 11.9968 18.1571ZM18.4059 7.02864C17.6105 7.02864 16.968 6.38621 16.968 5.59067C16.968 4.79513 17.6105 4.1527 18.4059 4.1527C19.2015 4.1527 19.8439 4.79513 19.8439 5.59067C19.8441 5.77958 19.8071 5.96666 19.735 6.14123C19.6627 6.31581 19.5569 6.47442 19.4233 6.608C19.2897 6.74158 19.1311 6.84749 18.9566 6.91967C18.7819 6.99185 18.5949 7.02888 18.4059 7.02864Z" fill="#BCC2CC"/>
</g>
<defs>
<clipPath id="clip0_2114_1893">
<rect width="24" height="24" fill="white"/>
</clipPath>
</defs>
</svg>
