<svg width="48" height="48" viewBox="0 0 48 48" fill="none" xmlns="http://www.w3.org/2000/svg">
<g clip-path="url(#clip0_391_4202)">
<path d="M27 24H24V27H27V24Z" fill="#5FB3F6"/>
<path d="M30 27H27V30H30V27Z" fill="#5FB3F6"/>
<path d="M33 30H30V33H33V30Z" fill="#5FB3F6"/>
<path d="M33 24H30V27H33V24Z" fill="#5FB3F6"/>
<path d="M27 30H24V33H27V30Z" fill="#5FB3F6"/>
<path d="M30 18C28.4539 18.0413 26.9544 17.4683 25.8299 16.4064C24.7054 15.3446 24.0474 13.8804 24 12.3345C24.0281 11.2308 24.3678 10.1575 24.9799 9.23866L28.755 3.62116C28.9001 3.42827 29.088 3.27175 29.304 3.16396C29.52 3.05617 29.758 3.00006 29.9994 3.00006C30.2408 3.00006 30.4788 3.05617 30.6948 3.16396C30.9108 3.27175 31.0987 3.42827 31.2438 3.62116L34.9731 9.16501C35.61 10.1023 35.9663 11.2018 36 12.3345C35.9526 13.8804 35.2946 15.3446 34.1701 16.4064C33.0456 17.4683 31.5461 18.0413 30 18ZM30 7.14481L27.5157 10.8386C27.2053 11.2782 27.0264 11.797 27 12.3345C27.0475 13.0846 27.3895 13.7856 27.9513 14.2848C28.5132 14.784 29.2495 15.0411 30 15C30.7505 15.0411 31.4868 14.784 32.0487 14.2848C32.6105 13.7856 32.9525 13.0846 33 12.3345C32.9663 11.7682 32.7711 11.2235 32.4375 10.7646L30 7.14481Z" fill="#5FB3F6"/>
<path d="M42 6C41.2046 6.00091 40.4421 6.31728 39.8797 6.87969C39.3173 7.4421 39.0009 8.20463 39 9V39H9V15H12V27L13.5 30L15 27V15H18V21L19.5 24L21 21V12H9V9C8.99909 8.20463 8.68272 7.4421 8.12031 6.87969C7.5579 6.31728 6.79537 6.00091 6 6H3V9H6V39C6.00091 39.7954 6.31728 40.5579 6.87969 41.1203C7.4421 41.6827 8.20463 41.9991 9 42H39C39.7954 41.9991 40.5579 41.6827 41.1203 41.1203C41.6827 40.5579 41.9991 39.7954 42 39V9H45V6H42Z" fill="#5FB3F6"/>
</g>
<defs>
<clipPath id="clip0_391_4202">
<rect width="48" height="48" fill="white"/>
</clipPath>
</defs>
</svg>
