<svg width="48" height="48" viewBox="0 0 48 48" fill="none" xmlns="http://www.w3.org/2000/svg">
<g clip-path="url(#clip0_391_4236)">
<path d="M43.2444 31.755L37.4995 26.055L38.5044 25.05C38.7838 24.7689 38.9406 24.3887 38.9406 23.9925C38.9406 23.5962 38.7838 23.216 38.5044 22.935L29.5044 13.935C29.2234 13.6556 28.8432 13.4988 28.4469 13.4988C28.0507 13.4988 27.6705 13.6556 27.3895 13.935L26.2044 15.12L16.0644 4.93497C15.7834 4.65559 15.4032 4.49878 15.0069 4.49878C14.6107 4.49878 14.2305 4.65559 13.9494 4.93497L7.94945 10.935L7.76945 11.16L1.76945 20.16C1.57686 20.4474 1.48958 20.7926 1.52238 21.1371C1.55519 21.4815 1.70606 21.804 1.94945 22.05L6.44945 26.55C6.58889 26.6906 6.75479 26.8022 6.93758 26.8783C7.12037 26.9545 7.31643 26.9937 7.51445 26.9937C7.71247 26.9937 7.90852 26.9545 8.09131 26.8783C8.2741 26.8022 8.44 26.6906 8.57945 26.55L14.9994 20.115L18.1344 23.25L10.9344 30.435C10.6551 30.716 10.4983 31.0962 10.4983 31.4925C10.4983 31.8887 10.6551 32.2689 10.9344 32.55L13.9344 35.55C14.0734 35.6917 14.239 35.8045 14.4219 35.8817C14.6047 35.9589 14.801 35.9991 14.9994 36C15.2752 35.9981 15.5451 35.9202 15.7794 35.775L22.2744 31.875L25.9345 35.55C26.2155 35.8293 26.5957 35.9862 26.992 35.9862C27.3882 35.9862 27.7684 35.8293 28.0494 35.55L29.0545 34.5L34.7394 40.245C35.8653 41.3708 37.3923 42.0033 38.9844 42.0033C40.5766 42.0033 42.1036 41.3708 43.2294 40.245C44.3553 39.1191 44.9878 37.5922 44.9878 36C44.9878 34.4078 44.3553 32.8808 43.2294 31.755H43.2444ZM14.9994 15.87L7.49945 23.37L4.93445 20.805L10.1694 12.945L14.9994 8.11497L24.1344 17.25L20.2494 21.12L14.9994 15.87ZM26.9994 32.37L22.7394 28.11L15.2394 32.61L14.1294 31.5L28.4994 17.115L35.3844 24L26.9994 32.37ZM41.1294 38.115C40.8508 38.3939 40.52 38.6152 40.1558 38.7661C39.7916 38.9171 39.4012 38.9948 39.0069 38.9948C38.6127 38.9948 38.2223 38.9171 37.8581 38.7661C37.4939 38.6152 37.1631 38.3939 36.8844 38.115L31.1845 32.43L35.4295 28.185L41.1294 33.87C41.4084 34.1486 41.6297 34.4795 41.7806 34.8436C41.9316 35.2078 42.0093 35.5982 42.0093 35.9925C42.0093 36.3867 41.9316 36.7771 41.7806 37.1413C41.6297 37.5055 41.4084 37.8363 41.1294 38.115Z" fill="#5FB3F6"/>
</g>
<defs>
<clipPath id="clip0_391_4236">
<rect width="48" height="48" fill="white"/>
</clipPath>
</defs>
</svg>
