<svg width="96" height="96" viewBox="0 0 96 96" fill="none" xmlns="http://www.w3.org/2000/svg">
<rect width="96" height="96" fill="#262626"/>
<mask id="path-1-inside-1_2209_3530" fill="white">
<path d="M53.6814 69.1202H34.7916C32.1494 69.1202 30 67.0402 30 64.4834V64.3801C30 61.8233 32.1495 59.7433 34.7916 59.7433H44.7568C46.7822 59.7433 48.4302 58.1496 48.4302 56.1899C48.4302 54.2303 46.7823 52.6365 44.7568 52.6365H34.7916C32.1494 52.6365 30 50.5565 30 48.0003C30 45.4441 32.1495 43.3642 34.7916 43.3642H44.7568C46.7822 43.3642 48.4302 41.7697 48.4302 39.8101V39.7068C48.4302 37.7471 46.7823 36.1529 44.7568 36.1529H34.7916C32.1494 36.1529 30 34.0729 30 31.5167C30 28.9604 32.1495 26.8804 34.7916 26.8804H53.6813C53.9903 26.8804 54.2406 27.123 54.2406 27.4219C54.2406 27.7207 53.9903 27.9633 53.6813 27.9633H34.7916C32.7662 27.9633 31.1185 29.557 31.1185 31.5167C31.1185 33.4763 32.7662 35.0701 34.7916 35.0701H44.7568C47.3992 35.0701 49.5487 37.1501 49.5487 39.7069V39.8102C49.5487 42.367 47.3991 44.447 44.7568 44.447H34.7916C32.7662 44.447 31.1185 46.0409 31.1185 48.0004C31.1185 49.96 32.7662 51.5538 34.7916 51.5538H44.7568C47.3992 51.5538 49.5487 53.6338 49.5487 56.19C49.5487 58.7462 47.3991 60.8262 44.7568 60.8262H34.7916C32.7662 60.8262 31.1185 62.4206 31.1185 64.3802V64.4835C31.1185 66.4431 32.7662 68.0375 34.7916 68.0375H53.6813C53.8297 68.0374 53.9721 68.0945 54.077 68.196C54.182 68.2975 54.241 68.4352 54.241 68.5788C54.241 68.7224 54.182 68.8601 54.0771 68.9616C53.9722 69.0632 53.8299 69.1202 53.6814 69.1202Z"/>
<path d="M58.0211 72H53.6813C53.533 71.9999 53.3907 71.9429 53.2858 71.8413C53.1809 71.7398 53.122 71.6021 53.122 71.4586V24.5414C53.122 24.3979 53.1809 24.2602 53.2858 24.1587C53.3907 24.0571 53.533 24.0001 53.6813 24H58.0211C58.1695 24.0001 58.3118 24.0571 58.4167 24.1587C58.5215 24.2602 58.5805 24.3979 58.5804 24.5414V71.4586C58.5805 71.5297 58.566 71.6001 58.5379 71.6657C58.5099 71.7314 58.4687 71.7911 58.4167 71.8414C58.3648 71.8917 58.3031 71.9316 58.2352 71.9588C58.1674 71.986 58.0946 72 58.0211 72ZM54.2407 70.9171H57.4618V25.0829H54.2407V70.9171Z"/>
<path d="M61.5841 27.9633H58.0212C57.7123 27.9633 57.4619 27.7207 57.4619 27.4219C57.4619 27.123 57.7123 26.8804 58.0212 26.8804H61.5841C61.8931 26.8804 62.1434 27.123 62.1434 27.4219C62.1434 27.7207 61.893 27.9633 61.5841 27.9633Z"/>
<path d="M64.465 29.3568H61.584C61.4356 29.3567 61.2933 29.2997 61.1884 29.1981C61.0835 29.0966 61.0246 28.9589 61.0247 28.8154V26.0284C61.0246 25.8848 61.0835 25.7471 61.1884 25.6456C61.2933 25.5441 61.4356 25.487 61.584 25.4869H64.465C64.6134 25.487 64.7556 25.5441 64.8605 25.6456C64.9654 25.7471 65.0243 25.8848 65.0243 26.0284V28.8154C65.0243 28.9589 64.9654 29.0966 64.8605 29.1981C64.7556 29.2997 64.6134 29.3567 64.465 29.3568ZM62.1434 28.2739H63.9057V26.5697H62.1434V28.2739ZM61.5841 69.1202H58.0212C57.7123 69.1202 57.4619 68.8777 57.4619 68.5788C57.4619 68.2799 57.7123 68.0373 58.0212 68.0373H61.5841C61.8931 68.0373 62.1434 68.2799 62.1434 68.5788C62.1434 68.8777 61.893 69.1202 61.5841 69.1202Z"/>
<path d="M63.6586 70.8444C62.3674 70.8444 61.3169 69.8278 61.3169 68.5788C61.3169 67.3292 62.3673 66.3126 63.6586 66.3126C64.9497 66.3126 66 67.3292 66 68.5788C66 69.8278 64.9497 70.8444 63.6586 70.8444ZM63.6586 67.3955C62.9842 67.3955 62.4355 67.9264 62.4355 68.5788C62.4355 69.2312 62.9842 69.7615 63.6586 69.7615C64.3327 69.7615 64.8813 69.2313 64.8813 68.5788C64.8813 67.9264 64.3327 67.3955 63.6586 67.3955ZM63.5841 62.0705C63.4357 62.0705 63.2934 62.0134 63.1885 61.9118C63.0836 61.8103 63.0247 61.6726 63.0248 61.5291V34.2637C63.0247 34.1201 63.0836 33.9824 63.1885 33.8809C63.2934 33.7794 63.4357 33.7223 63.5841 33.7222C63.7324 33.7223 63.8747 33.7794 63.9796 33.8809C64.0845 33.9824 64.1434 34.1201 64.1434 34.2637V61.5291C64.1434 61.6726 64.0845 61.8103 63.9796 61.9118C63.8747 62.0134 63.7324 62.0705 63.5841 62.0705Z"/>
</mask>
<path d="M53.6814 69.1202H34.7916C32.1494 69.1202 30 67.0402 30 64.4834V64.3801C30 61.8233 32.1495 59.7433 34.7916 59.7433H44.7568C46.7822 59.7433 48.4302 58.1496 48.4302 56.1899C48.4302 54.2303 46.7823 52.6365 44.7568 52.6365H34.7916C32.1494 52.6365 30 50.5565 30 48.0003C30 45.4441 32.1495 43.3642 34.7916 43.3642H44.7568C46.7822 43.3642 48.4302 41.7697 48.4302 39.8101V39.7068C48.4302 37.7471 46.7823 36.1529 44.7568 36.1529H34.7916C32.1494 36.1529 30 34.0729 30 31.5167C30 28.9604 32.1495 26.8804 34.7916 26.8804H53.6813C53.9903 26.8804 54.2406 27.123 54.2406 27.4219C54.2406 27.7207 53.9903 27.9633 53.6813 27.9633H34.7916C32.7662 27.9633 31.1185 29.557 31.1185 31.5167C31.1185 33.4763 32.7662 35.0701 34.7916 35.0701H44.7568C47.3992 35.0701 49.5487 37.1501 49.5487 39.7069V39.8102C49.5487 42.367 47.3991 44.447 44.7568 44.447H34.7916C32.7662 44.447 31.1185 46.0409 31.1185 48.0004C31.1185 49.96 32.7662 51.5538 34.7916 51.5538H44.7568C47.3992 51.5538 49.5487 53.6338 49.5487 56.19C49.5487 58.7462 47.3991 60.8262 44.7568 60.8262H34.7916C32.7662 60.8262 31.1185 62.4206 31.1185 64.3802V64.4835C31.1185 66.4431 32.7662 68.0375 34.7916 68.0375H53.6813C53.8297 68.0374 53.9721 68.0945 54.077 68.196C54.182 68.2975 54.241 68.4352 54.241 68.5788C54.241 68.7224 54.182 68.8601 54.0771 68.9616C53.9722 69.0632 53.8299 69.1202 53.6814 69.1202Z" stroke="#7E858F" stroke-width="2" mask="url(#path-1-inside-1_2209_3530)"/>
<path d="M58.0211 72H53.6813C53.533 71.9999 53.3907 71.9429 53.2858 71.8413C53.1809 71.7398 53.122 71.6021 53.122 71.4586V24.5414C53.122 24.3979 53.1809 24.2602 53.2858 24.1587C53.3907 24.0571 53.533 24.0001 53.6813 24H58.0211C58.1695 24.0001 58.3118 24.0571 58.4167 24.1587C58.5215 24.2602 58.5805 24.3979 58.5804 24.5414V71.4586C58.5805 71.5297 58.566 71.6001 58.5379 71.6657C58.5099 71.7314 58.4687 71.7911 58.4167 71.8414C58.3648 71.8917 58.3031 71.9316 58.2352 71.9588C58.1674 71.986 58.0946 72 58.0211 72ZM54.2407 70.9171H57.4618V25.0829H54.2407V70.9171Z" stroke="#7E858F" stroke-width="2" mask="url(#path-1-inside-1_2209_3530)"/>
<path d="M61.5841 27.9633H58.0212C57.7123 27.9633 57.4619 27.7207 57.4619 27.4219C57.4619 27.123 57.7123 26.8804 58.0212 26.8804H61.5841C61.8931 26.8804 62.1434 27.123 62.1434 27.4219C62.1434 27.7207 61.893 27.9633 61.5841 27.9633Z" stroke="#7E858F" stroke-width="2" mask="url(#path-1-inside-1_2209_3530)"/>
<path d="M64.465 29.3568H61.584C61.4356 29.3567 61.2933 29.2997 61.1884 29.1981C61.0835 29.0966 61.0246 28.9589 61.0247 28.8154V26.0284C61.0246 25.8848 61.0835 25.7471 61.1884 25.6456C61.2933 25.5441 61.4356 25.487 61.584 25.4869H64.465C64.6134 25.487 64.7556 25.5441 64.8605 25.6456C64.9654 25.7471 65.0243 25.8848 65.0243 26.0284V28.8154C65.0243 28.9589 64.9654 29.0966 64.8605 29.1981C64.7556 29.2997 64.6134 29.3567 64.465 29.3568ZM62.1434 28.2739H63.9057V26.5697H62.1434V28.2739ZM61.5841 69.1202H58.0212C57.7123 69.1202 57.4619 68.8777 57.4619 68.5788C57.4619 68.2799 57.7123 68.0373 58.0212 68.0373H61.5841C61.8931 68.0373 62.1434 68.2799 62.1434 68.5788C62.1434 68.8777 61.893 69.1202 61.5841 69.1202Z" stroke="#7E858F" stroke-width="2" mask="url(#path-1-inside-1_2209_3530)"/>
<path d="M63.6586 70.8444C62.3674 70.8444 61.3169 69.8278 61.3169 68.5788C61.3169 67.3292 62.3673 66.3126 63.6586 66.3126C64.9497 66.3126 66 67.3292 66 68.5788C66 69.8278 64.9497 70.8444 63.6586 70.8444ZM63.6586 67.3955C62.9842 67.3955 62.4355 67.9264 62.4355 68.5788C62.4355 69.2312 62.9842 69.7615 63.6586 69.7615C64.3327 69.7615 64.8813 69.2313 64.8813 68.5788C64.8813 67.9264 64.3327 67.3955 63.6586 67.3955ZM63.5841 62.0705C63.4357 62.0705 63.2934 62.0134 63.1885 61.9118C63.0836 61.8103 63.0247 61.6726 63.0248 61.5291V34.2637C63.0247 34.1201 63.0836 33.9824 63.1885 33.8809C63.2934 33.7794 63.4357 33.7223 63.5841 33.7222C63.7324 33.7223 63.8747 33.7794 63.9796 33.8809C64.0845 33.9824 64.1434 34.1201 64.1434 34.2637V61.5291C64.1434 61.6726 64.0845 61.8103 63.9796 61.9118C63.8747 62.0134 63.7324 62.0705 63.5841 62.0705Z" stroke="#7E858F" stroke-width="2" mask="url(#path-1-inside-1_2209_3530)"/>
</svg>
