<svg width="96" height="96" viewBox="0 0 96 96" fill="none" xmlns="http://www.w3.org/2000/svg">
<rect width="96" height="96" fill="#262626"/>
<path d="M38.3966 38.799C38.3966 36.461 40.3011 34.5702 42.645 34.5702C44.9889 34.5702 46.8935 36.461 46.8935 38.799V39.6061C46.8935 39.6771 46.8793 39.7451 46.8527 39.8076C46.8527 39.8077 46.8526 39.8079 46.8525 39.8081L38.3966 38.799ZM38.3966 38.799V39.6061M38.3966 38.799V39.6061M38.3966 39.6061C38.3966 39.6771 38.4108 39.7452 38.4374 39.8078L38.3966 39.6061ZM67.6055 54.1938V54.629L68.0366 54.689C69.9957 54.9616 71.5 56.6351 71.5 58.6537V63.9806C71.5 65.9218 69.9173 67.5 67.9594 67.5C66.0015 67.5 64.4189 65.9218 64.4189 63.9806V62.7215C64.4189 62.1487 63.9528 61.6889 63.3834 61.6889H47.0264C46.9505 61.6889 46.8935 61.6284 46.8935 61.5593C46.8935 61.4902 46.9505 61.4298 47.0264 61.4298H63.3834C64.1045 61.4298 64.6846 62.0106 64.6846 62.7215V63.9806C64.6846 65.7837 66.1533 67.2409 67.9594 67.2409C69.7656 67.2409 71.2343 65.7837 71.2343 63.9806V58.6537C71.2343 56.5832 69.5476 54.9092 67.4726 54.9092C65.9353 54.9092 64.6846 56.1496 64.6846 57.6852V58.6537C64.6846 58.7228 64.6276 58.7833 64.5517 58.7833C64.4759 58.7833 64.4189 58.7228 64.4189 58.6537V57.6852C64.4189 56.196 65.4994 54.9536 66.9278 54.6982L67.3398 54.6245V54.206V49.937C67.3398 47.8665 65.6531 46.1925 63.5781 46.1925H54.4746H53.9746V46.6925V55.7482C53.9746 55.8172 53.9176 55.8777 53.8418 55.8777C53.7659 55.8777 53.7089 55.8172 53.7089 55.7482V46.6925V46.1925H53.2089H44.1055C42.0305 46.1925 40.3438 47.8665 40.3438 49.937V51.8741C40.3438 51.9432 40.2868 52.0036 40.211 52.0036C40.1351 52.0036 40.0781 51.9432 40.0781 51.8741V49.937C40.0781 47.7284 41.8787 45.9334 44.1055 45.9334H63.5781C65.8048 45.9334 67.6055 47.7284 67.6055 49.937V54.1938ZM41.2653 30.6695L41.5643 31.0702L41.2653 30.6695C41.2057 30.7139 41.1212 30.7012 41.0775 30.6433C40.1828 29.4566 38.7795 28.7591 37.2901 28.7591H36.641C33.3113 28.7591 30.6075 31.4449 30.6075 34.7635V64.4649C30.6075 64.534 30.5505 64.5944 30.4746 64.5944C30.3988 64.5944 30.3418 64.534 30.3418 64.4649V34.7635C30.3418 31.3067 33.1595 28.5 36.641 28.5H37.2901C38.8652 28.5 40.3476 29.2378 41.2916 30.4899C41.3341 30.5462 41.3234 30.6261 41.2653 30.6695ZM46.822 39.8685L46.822 39.8685L46.3834 39.6213C46.3849 39.6206 46.3868 39.6195 46.3888 39.6175L46.7412 39.9722C46.7413 39.9721 46.7413 39.9721 46.7413 39.9721C46.7733 39.9402 46.8002 39.9052 46.822 39.8685ZM46.3773 40.1223C46.4477 40.1223 46.5152 40.1083 46.5774 40.0821L38.7127 40.0821C38.7748 40.1083 38.8424 40.1223 38.9128 40.1223H46.3773ZM38.1308 38.799C38.1308 36.3229 40.1494 34.3111 42.645 34.3111C45.1406 34.3111 47.1592 36.3229 47.1592 38.799V39.6061C47.1592 40.0318 46.8116 40.3814 46.3773 40.3814H38.9128C38.4784 40.3814 38.1308 40.0318 38.1308 39.6061V38.799ZM38.4375 39.8081C38.4636 39.8695 38.5015 39.9251 38.5487 39.972C38.5959 40.019 38.6517 40.0564 38.7127 40.0821L38.4375 39.8081ZM40.211 55.8777C38.6736 55.8777 37.4229 57.1181 37.4229 58.6537V63.4964C37.4229 65.5669 39.1096 67.2409 41.1846 67.2409H60.6572C60.7331 67.2409 60.7901 67.3014 60.7901 67.3705C60.7901 67.4395 60.7331 67.5 60.6572 67.5H41.1846C38.9578 67.5 37.1572 65.705 37.1572 63.4964V58.6537C37.1572 56.98 38.5219 55.6186 40.211 55.6186C41.9 55.6186 43.2647 56.98 43.2647 58.6537V62.5278C43.2647 62.5969 43.2077 62.6574 43.1318 62.6574C43.056 62.6574 42.999 62.5969 42.999 62.5278V58.6537C42.999 57.1181 41.7483 55.8777 40.211 55.8777ZM24.5 67.3705C24.5 67.3014 24.557 67.2409 24.6329 67.2409H32.4219C32.4978 67.2409 32.5548 67.3014 32.5548 67.3705C32.5548 67.4395 32.4978 67.5 32.4219 67.5H24.6329C24.557 67.5 24.5 67.4395 24.5 67.3705Z" stroke="#7E858F" stroke-linecap="round"/>
</svg>
