<svg width="96" height="96" viewBox="0 0 96 96" fill="none" xmlns="http://www.w3.org/2000/svg">
<rect width="96" height="96" fill="#262626"/>
<path fill-rule="evenodd" clip-rule="evenodd" d="M29 33.125C29 30.8468 30.8414 29 33.113 29H40.8604C43.132 29 44.9734 30.8468 44.9734 33.125V40.895C44.9734 43.1731 43.132 45.02 40.8604 45.02H33.113C30.8414 45.02 29 43.1731 29 40.895V33.125ZM33.113 30.2591C31.5348 30.2591 30.2554 31.5422 30.2554 33.125V40.895C30.2554 42.4778 31.5348 43.7609 33.113 43.7609H40.8604C42.4386 43.7609 43.718 42.4778 43.718 40.895V33.125C43.718 31.5422 42.4386 30.2591 40.8604 30.2591H33.113ZM50.9104 33.125C50.9104 30.8468 52.7518 29 55.0234 29H62.7708C65.0424 29 66.8838 30.8468 66.8838 33.125V40.895C66.8838 43.1731 65.0424 45.02 62.7708 45.02H55.0234C52.7518 45.02 50.9104 43.1731 50.9104 40.895V33.125ZM55.0234 30.2591C53.4452 30.2591 52.1658 31.5422 52.1658 33.125V40.895C52.1658 42.4778 53.4452 43.7609 55.0234 43.7609H62.7708C64.349 43.7609 65.6284 42.4778 65.6284 40.895V33.125C65.6284 31.5422 64.349 30.2591 62.7708 30.2591H55.0234ZM59.5304 51.0115C59.8771 51.0115 60.1581 51.2934 60.1581 51.6411V57.8762H66.3723C66.719 57.8762 67 58.1581 67 58.5058C67 58.8534 66.719 59.1353 66.3723 59.1353H60.1581V65.3705C60.1581 65.7181 59.8771 66 59.5304 66C59.1838 66 58.9027 65.7181 58.9027 65.3705V59.1353H52.5381C52.1914 59.1353 51.9104 58.8534 51.9104 58.5058C51.9104 58.1581 52.1914 57.8762 52.5381 57.8762H58.9027V51.6411C58.9027 51.2934 59.1838 51.0115 59.5304 51.0115ZM29 55.105C29 52.8269 30.8414 50.98 33.113 50.98H40.8604C43.132 50.98 44.9734 52.8269 44.9734 55.105V62.875C44.9734 65.1532 43.132 67 40.8604 67H33.113C30.8414 67 29 65.1532 29 62.875V55.105ZM33.113 52.2391C31.5348 52.2391 30.2554 53.5222 30.2554 55.105V62.875C30.2554 64.4578 31.5348 65.7409 33.113 65.7409H40.8604C42.4386 65.7409 43.718 64.4578 43.718 62.875V55.105C43.718 53.5222 42.4386 52.2391 40.8604 52.2391H33.113Z" fill="#7E858F"/>
</svg>
