<svg width="96" height="96" viewBox="0 0 96 96" fill="none" xmlns="http://www.w3.org/2000/svg">
<rect width="96" height="96" fill="#262626"/>
<path d="M59.6581 57.8762V58.3762H60.1581H66.3723C66.4415 58.3762 66.5 58.4328 66.5 58.5058C66.5 58.5787 66.4414 58.6353 66.3723 58.6353H60.1581H59.6581V59.1353V65.3705C59.6581 65.4434 59.5996 65.5 59.5304 65.5C59.4613 65.5 59.4027 65.4434 59.4027 65.3705V59.1353V58.6353H58.9027H52.5381C52.469 58.6353 52.4104 58.5787 52.4104 58.5058C52.4104 58.4328 52.4689 58.3762 52.5381 58.3762H58.9027H59.4027V57.8762V51.6411C59.4027 51.5681 59.4613 51.5115 59.5304 51.5115C59.5996 51.5115 59.6581 51.5681 59.6581 51.6411V57.8762ZM29.5 33.125C29.5 31.1216 31.119 29.5 33.113 29.5H40.8604C42.8545 29.5 44.4734 31.1216 44.4734 33.125V40.895C44.4734 42.8984 42.8545 44.52 40.8604 44.52H33.113C31.119 44.52 29.5 42.8984 29.5 40.895V33.125ZM33.113 29.7591C31.2573 29.7591 29.7554 31.2674 29.7554 33.125V40.895C29.7554 42.7525 31.2573 44.2609 33.113 44.2609H40.8604C42.7161 44.2609 44.218 42.7525 44.218 40.895V33.125C44.218 31.2674 42.7161 29.7591 40.8604 29.7591H33.113ZM51.4104 33.125C51.4104 31.1216 53.0294 29.5 55.0234 29.5H62.7708C64.7649 29.5 66.3838 31.1216 66.3838 33.125V40.895C66.3838 42.8984 64.7649 44.52 62.7708 44.52H55.0234C53.0294 44.52 51.4104 42.8984 51.4104 40.895V33.125ZM55.0234 29.7591C53.1677 29.7591 51.6658 31.2674 51.6658 33.125V40.895C51.6658 42.7525 53.1677 44.2609 55.0234 44.2609H62.7708C64.6265 44.2609 66.1284 42.7525 66.1284 40.895V33.125C66.1284 31.2674 64.6265 29.7591 62.7708 29.7591H55.0234ZM29.5 55.105C29.5 53.1016 31.119 51.48 33.113 51.48H40.8604C42.8545 51.48 44.4734 53.1016 44.4734 55.105V62.875C44.4734 64.8784 42.8545 66.5 40.8604 66.5H33.113C31.119 66.5 29.5 64.8784 29.5 62.875V55.105ZM33.113 51.7391C31.2573 51.7391 29.7554 53.2475 29.7554 55.105V62.875C29.7554 64.7326 31.2573 66.2409 33.113 66.2409H40.8604C42.7161 66.2409 44.218 64.7326 44.218 62.875V55.105C44.218 53.2475 42.7161 51.7391 40.8604 51.7391H33.113Z" fill="#7E858F" stroke="#7E858F"/>
</svg>
