<svg width="48" height="48" viewBox="0 0 48 48" fill="none" xmlns="http://www.w3.org/2000/svg">
<g clip-path="url(#clip0_391_4164)">
<path d="M40.5 38.379L37.5 35.379V31.5H34.5V36.621L38.379 40.5L40.5 38.379Z" fill="#5FB3F6"/>
<path d="M36 46.5C33.9233 46.5 31.8932 45.8842 30.1665 44.7304C28.4398 43.5767 27.094 41.9368 26.2993 40.0182C25.5045 38.0996 25.2966 35.9884 25.7018 33.9516C26.1069 31.9148 27.1069 30.0438 28.5754 28.5754C30.0438 27.1069 31.9148 26.1069 33.9516 25.7018C35.9884 25.2966 38.0996 25.5045 40.0182 26.2993C41.9368 27.094 43.5767 28.4398 44.7304 30.1665C45.8842 31.8932 46.5 33.9233 46.5 36C46.4969 38.7838 45.3897 41.4527 43.4212 43.4212C41.4527 45.3897 38.7838 46.4969 36 46.5ZM36 28.5C34.5166 28.5 33.0666 28.9399 31.8332 29.764C30.5999 30.5881 29.6386 31.7594 29.0709 33.1299C28.5033 34.5003 28.3547 36.0083 28.6441 37.4632C28.9335 38.918 29.6478 40.2544 30.6967 41.3033C31.7456 42.3522 33.082 43.0665 34.5368 43.3559C35.9917 43.6453 37.4997 43.4968 38.8701 42.9291C40.2406 42.3614 41.4119 41.4002 42.236 40.1668C43.0601 38.9334 43.5 37.4834 43.5 36C43.4978 34.0116 42.7069 32.1052 41.3009 30.6991C39.8948 29.2931 37.9885 28.5022 36 28.5Z" fill="#5FB3F6"/>
<path d="M24 42C19.2277 41.9947 14.6525 40.0965 11.278 36.722C7.90345 33.3475 6.00532 28.7723 6 24H3C3.00627 29.5676 5.22078 34.9054 9.15769 38.8423C13.0946 42.7792 18.4324 44.9937 24 45V42Z" fill="#5FB3F6"/>
<path d="M18 12H10.6176C13.0451 9.28277 16.2409 7.36734 19.7816 6.50755C23.3223 5.64776 27.0407 5.88421 30.444 7.18556C33.8473 8.48691 36.7748 10.7917 38.8385 13.7945C40.9023 16.7973 42.0048 20.3564 42 24H45C45.0066 19.8252 43.7668 15.7434 41.4392 12.2776C39.1117 8.81173 35.8025 6.11965 31.9355 4.54617C28.0686 2.9727 23.8199 2.58948 19.7338 3.4456C15.6476 4.30172 11.9101 6.35819 9 9.3516V3H6V15H18V12Z" fill="#5FB3F6"/>
</g>
<defs>
<clipPath id="clip0_391_4164">
<rect width="48" height="48" fill="white"/>
</clipPath>
</defs>
</svg>
