<svg width="24" height="16" viewBox="0 0 24 16" fill="none" xmlns="http://www.w3.org/2000/svg">
<g opacity="0.6" clip-path="url(#clip0_2114_1897)">
<path fill-rule="evenodd" clip-rule="evenodd" d="M23.4495 1.51571C23.6155 0.930714 23.4495 0.5 22.6545 0.5H20.0296C19.3616 0.5 19.0536 0.871786 18.8866 1.28214C18.8866 1.28214 17.5516 4.70643 15.6607 6.93071C15.0487 7.57571 14.7707 7.78036 14.4367 7.78036C14.2697 7.78036 14.0187 7.57571 14.0187 6.98964V1.51571C14.0187 0.812857 13.8347 0.5 13.2787 0.5H9.15079C8.73385 0.5 8.48284 0.825714 8.48284 1.13536C8.48284 1.80071 9.42877 1.955 9.52577 3.82786V7.89714C9.52577 8.78964 9.37283 8.95143 9.03881 8.95143C8.14883 8.95143 5.98388 5.51107 4.6989 1.57464C4.44991 0.808571 4.19791 0.5 3.52692 0.5H0.899983C0.149997 0.5 0 0.871786 0 1.28214C0 2.01286 0.889978 5.64286 4.14492 10.4439C6.31487 13.7225 9.36977 15.5 12.1528 15.5C13.8217 15.5 14.0277 15.1057 14.0277 14.4254V11.9471C14.0277 11.1575 14.1857 11 14.7147 11C15.1047 11 15.7716 11.2057 17.3297 12.7861C19.1096 14.66 19.4026 15.5 20.4046 15.5H23.0295C23.7795 15.5 24.1555 15.1057 23.9395 14.3257C23.7015 13.55 22.8516 12.4239 21.7246 11.0879C21.1126 10.3271 20.1946 9.5075 19.9156 9.09714C19.5266 8.57107 19.6376 8.33643 19.9156 7.86821C19.9156 7.86821 23.1155 3.12607 23.4485 1.51571H23.4495Z" fill="#BCC2CC"/>
</g>
<defs>
<clipPath id="clip0_2114_1897">
<rect width="24" height="15" fill="white" transform="translate(0 0.5)"/>
</clipPath>
</defs>
</svg>
