<svg width="48" height="48" viewBox="0 0 48 48" fill="none" xmlns="http://www.w3.org/2000/svg">
<g clip-path="url(#clip0_391_4221)">
<path d="M24.0002 36C23.7519 36 23.5075 35.9381 23.2891 35.82L3.78906 25.32L5.21136 22.68L24.0002 32.7964L42.7891 22.68L44.2114 25.321L24.7114 35.821C24.4928 35.9388 24.2484 36.0003 24.0002 36Z" fill="#5FB3F6"/>
<path d="M24.0002 45C23.7519 45 23.5075 44.9381 23.2891 44.82L3.78906 34.32L5.21136 31.68L24.0002 41.7964L42.7891 31.68L44.2114 34.321L24.7114 44.821C24.4928 44.9388 24.2484 45.0003 24.0002 45Z" fill="#5FB3F6"/>
<path d="M23.9997 27C23.7513 27 23.5069 26.9381 23.2885 26.82L3.78851 16.32C3.55013 16.1915 3.35095 16.001 3.21213 15.7685C3.0733 15.536 3 15.2702 3 14.9995C3 14.7287 3.0733 14.4629 3.21213 14.2304C3.35095 13.9979 3.55013 13.8074 3.78851 13.6789L23.2885 3.17893C23.507 3.06101 23.7514 2.99927 23.9997 2.99927C24.2479 2.99927 24.4923 3.06101 24.7108 3.17893L44.2108 13.6789C44.4492 13.8074 44.6484 13.9979 44.7872 14.2304C44.926 14.4629 44.9993 14.7287 44.9993 14.9995C44.9993 15.2702 44.926 15.536 44.7872 15.7685C44.6484 16.001 44.4492 16.1915 44.2108 16.32L24.7108 26.82C24.4924 26.9381 24.248 27 23.9997 27ZM7.66376 15L23.9997 23.7964L40.3356 15L23.9997 6.20368L7.66376 15Z" fill="#5FB3F6"/>
</g>
<defs>
<clipPath id="clip0_391_4221">
<rect width="48" height="48" fill="white"/>
</clipPath>
</defs>
</svg>
