<svg width="48" height="48" viewBox="0 0 48 48" fill="none" xmlns="http://www.w3.org/2000/svg">
<g clip-path="url(#clip0_391_4248)">
<path d="M33 40.77L29.115 36.885L27 39L33 45L45 33L42.885 30.885L33 40.77Z" fill="#5FB3F6"/>
<path d="M37.5 7.5H33V6C32.9977 5.20506 32.6809 4.44333 32.1188 3.88122C31.5567 3.3191 30.7949 3.0023 30 3H18C17.2051 3.0023 16.4433 3.3191 15.8812 3.88122C15.3191 4.44333 15.0023 5.20506 15 6V7.5H10.5C9.70506 7.5023 8.94333 7.8191 8.38122 8.38122C7.8191 8.94333 7.5023 9.70506 7.5 10.5V42C7.5023 42.7949 7.8191 43.5567 8.38122 44.1188C8.94333 44.6809 9.70506 44.9977 10.5 45H24V42H10.5V10.5H15V15H33V10.5H37.5V27H40.5V10.5C40.4977 9.70506 40.1809 8.94333 39.6188 8.38122C39.0567 7.8191 38.2949 7.5023 37.5 7.5ZM30 12H18V6H30V12Z" fill="#5FB3F6"/>
</g>
<defs>
<clipPath id="clip0_391_4248">
<rect width="48" height="48" fill="white"/>
</clipPath>
</defs>
</svg>
